<?xml version="1.0" encoding="utf-8" ?>
<svg baseProfile="full" class="WaveDrom" height="85" version="1.1" viewBox="0,0,809,85" width="809" xmlns="http://www.w3.org/2000/svg" xmlns:ev="http://www.w3.org/2001/xml-events" xmlns:xlink="http://www.w3.org/1999/xlink"><defs /><g font-family="sans-serif" font-size="14" font-weight="normal" text-anchor="middle" transform="translate(4.5,0.5)"><g stroke="black" stroke-linecap="round" stroke-width="1" transform="translate(0,20.0)"><line x1="0" x2="800" y1="0" y2="0" /><line x1="0" x2="0" y1="0" y2="40.0" /><line x1="0" x2="800" y1="40.0" y2="40.0" /><line x1="800.0" x2="800.0" y1="0" y2="40.0" /><line x1="700.0" x2="700.0" y1="0" y2="5.0" /><line x1="700.0" x2="700.0" y1="35.0" y2="40.0" /><line x1="600.0" x2="600.0" y1="0" y2="5.0" /><line x1="600.0" x2="600.0" y1="35.0" y2="40.0" /><line x1="500.0" x2="500.0" y1="0" y2="40.0" /><line x1="400.0" x2="400.0" y1="0" y2="5.0" /><line x1="400.0" x2="400.0" y1="35.0" y2="40.0" /><line x1="300.0" x2="300.0" y1="0" y2="40.0" /><line x1="200.0" x2="200.0" y1="0" y2="40.0" /><line x1="100.0" x2="100.0" y1="0" y2="40.0" /></g><g text-anchor="middle"><g><g transform="translate(0,20.0)" /><g transform="translate(50.0,16.0)"><text x="700.0"><tspan>0</tspan></text><text x="500.0"><tspan>2</tspan></text><text x="400.0"><tspan>3</tspan></text><text x="300.0"><tspan>4</tspan></text><text x="200.0"><tspan>5</tspan></text><text x="100.0"><tspan>6</tspan></text><text x="0.0"><tspan>7</tspan></text></g><g transform="translate(50.0,44.0)"><text x="600.0"><tspan>NBM Offset A</tspan></text><text x="350.0"><tspan>LNS Mode</tspan></text><text x="200.0"><tspan>Loopback En</tspan></text><text x="100.0"><tspan>Debug En</tspan></text><text><tspan>Short Protocol</tspan></text></g><g transform="translate(50.0,80)" /></g></g></g></svg>