<svg xmlns="http://www.w3.org/2000/svg" xmlns:xlink="http://www.w3.org/1999/xlink" width="6880" height="2621" version="1.1">
<style type="text/css">
.l0{
  fill: #ffffff;
  stroke: #ffffff;
  stroke-linecap:round;
  stroke-linejoin:round;
  stroke-width: 7.1645;
}
.l1{
  fill: #000000;
  stroke: #000000;
  stroke-linecap:round;
  stroke-linejoin:round;
  stroke-width: 7.1645;
}
.l2{
  fill: #000000; fill-opacity: 0.2;
  stroke: #000000;
  stroke-linecap:round;
  stroke-linejoin:round;
  stroke-width: 7.1645;
}
.l3{
  fill: #000000; fill-opacity: 0.5;
  stroke: #000000;
  stroke-linecap:round;
  stroke-linejoin:round;
  stroke-width: 7.1645;
}
.l4{
  fill: #000000;
  stroke: #000000;
  stroke-linecap:round;
  stroke-linejoin:round;
  stroke-width: 7.1645;
}
.l5{
  fill: #000000;
  stroke: #000000;
  stroke-linecap:round;
  stroke-linejoin:round;
  stroke-width: 7.1645;
}
.l6{
  fill: #000000; fill-opacity: 0.5;
  stroke: #000000;
  stroke-linecap:round;
  stroke-linejoin:round;
  stroke-width: 7.1645;
}
.l7{
  fill: #000000; fill-opacity: 0.5;
  stroke: #000000;
  stroke-linecap:round;
  stroke-linejoin:round;
  stroke-width: 7.1645;
}
.l8{
  fill: #000000; fill-opacity: 0.5;
  stroke: #000000;
  stroke-linecap:round;
  stroke-linejoin:round;
  stroke-width: 7.1645;
}
.l9{
  fill: #000000; fill-opacity: 0.5;
  stroke: #000000;
  stroke-linecap:round;
  stroke-linejoin:round;
  stroke-width: 7.1645;
}
.l10{
  fill: #000000;
  stroke: #000000;
  stroke-linecap:round;
  stroke-linejoin:round;
  stroke-width: 7.1645;
}
.l11{
  fill: #000000; fill-opacity: 0.5;
  stroke: #000000;
  stroke-linecap:round;
  stroke-linejoin:round;
  stroke-width: 7.1645;
}
.l12{
  fill: #000000; fill-opacity: 0.5;
  stroke: #000000;
  stroke-linecap:round;
  stroke-linejoin:round;
  stroke-width: 7.1645;
}
.l13{
  fill: #000000; fill-opacity: 0.5;
  stroke: #000000;
  stroke-linecap:round;
  stroke-linejoin:round;
  stroke-width: 7.1645;
}
.l14{
  fill: #000000; fill-opacity: 0.2;
  stroke: #000000;
  stroke-linecap:round;
  stroke-linejoin:round;
  stroke-width: 7.1645;
}
.l15{
  fill: #000000; fill-opacity: 0.5;
  stroke: #000000;
  stroke-linecap:round;
  stroke-linejoin:round;
  stroke-width: 7.1645;
}
.l16{
  fill: #000000; fill-opacity: 0.5;
  stroke: #000000;
  stroke-linecap:round;
  stroke-linejoin:round;
  stroke-width: 7.1645;
}
.l17{
  fill: #000000; fill-opacity: 0.2;
  stroke: #000000;
  stroke-linecap:round;
  stroke-linejoin:round;
  stroke-width: 7.1645;
}
.l18{
  fill: #000000; fill-opacity: 0.5;
  stroke: #000000;
  stroke-linecap:round;
  stroke-linejoin:round;
  stroke-width: 7.1645;
}
.l19{
  fill: #000000; fill-opacity: 0.2;
  stroke: #000000;
  stroke-linecap:round;
  stroke-linejoin:round;
  stroke-width: 7.1645;
}
.l20{
  fill: #000000; fill-opacity: 0.2;
  stroke: #000000;
  stroke-linecap:round;
  stroke-linejoin:round;
  stroke-width: 7.1645;
}
.l21{
  fill: #000000; fill-opacity: 0.2;
  stroke: #000000;
  stroke-linecap:round;
  stroke-linejoin:round;
  stroke-width: 7.1645;
}
text {font-family: Sans-Serif;}
</style>
<rect class="l0" x="0" y="0" width="6880" height="2621"/>
<path class="l4" d="M1257.48 1208.65L1257.48 1447.46"/>
<path class="l4" d="M1323.82 1168.84L1323.82 1235.18"/>
<path class="l4" d="M1323.82 1420.93L1323.82 1487.26"/>
<path class="l4" d="M1230.95 1248.45L1230.95 1407.66"/>
<path class="l4" d="M1257.48 1420.93L1323.82 1420.93"/>
<path class="l4" d="M1257.48 1235.18L1323.82 1235.18"/>
<path class="l4" d="M1111.54 1328.05L1228.29 1328.05"/>
<path class="l4" d="M1297.28 1434.19L1323.82 1420.93L1297.28 1407.66L1297.28 1434.19"/>
<path class="l4" d="M1257.48 677.942L1257.48 916.758"/>
<path class="l4" d="M1323.82 638.139L1323.82 704.477"/>
<path class="l4" d="M1323.82 890.223L1323.82 956.561"/>
<path class="l4" d="M1230.95 717.744L1230.95 876.956"/>
<path class="l4" d="M1257.48 890.223L1323.82 890.223"/>
<path class="l4" d="M1257.48 704.477L1323.82 704.477"/>
<path class="l4" d="M1111.54 797.35L1228.29 797.35"/>
<path class="l4" d="M1284.02 691.209L1257.48 704.477L1284.02 717.744L1284.02 691.209"/>
<path class="l4" d="M2265.82 1208.65L2265.82 1447.46"/>
<path class="l4" d="M2332.16 1168.84L2332.16 1235.18"/>
<path class="l4" d="M2332.16 1420.93L2332.16 1487.26"/>
<path class="l4" d="M2239.28 1248.45L2239.28 1407.66"/>
<path class="l4" d="M2265.82 1420.93L2332.16 1420.93"/>
<path class="l4" d="M2265.82 1235.18L2332.16 1235.18"/>
<path class="l4" d="M2119.87 1328.05L2236.63 1328.05"/>
<path class="l4" d="M2305.62 1434.19L2332.16 1420.93L2305.62 1407.66L2305.62 1434.19"/>
<path class="l4" d="M2265.82 677.942L2265.82 916.758"/>
<path class="l4" d="M2332.16 638.139L2332.16 704.477"/>
<path class="l4" d="M2332.16 890.223L2332.16 956.561"/>
<path class="l4" d="M2239.28 717.744L2239.28 876.956"/>
<path class="l4" d="M2265.82 890.223L2332.16 890.223"/>
<path class="l4" d="M2265.82 704.477L2332.16 704.477"/>
<path class="l4" d="M2119.87 797.35L2236.63 797.35"/>
<path class="l4" d="M2292.35 691.209L2265.82 704.477L2292.35 717.744L2292.35 691.209"/>
<path class="l4" d="M3672.18 1208.65L3672.18 1447.46"/>
<path class="l4" d="M3605.84 1168.84L3605.84 1235.18"/>
<path class="l4" d="M3605.84 1420.93L3605.84 1487.26"/>
<path class="l4" d="M3605.84 1420.93L3672.18 1420.93"/>
<path class="l4" d="M3605.84 1235.18L3672.18 1235.18"/>
<path class="l4" d="M3701.37 1328.05L3818.13 1328.05"/>
<path class="l4" d="M3632.38 1434.19L3605.84 1420.93L3632.38 1407.66L3632.38 1434.19"/>
<path class="l4" d="M3696.06 1243.14L3706.68 1243.14L3706.68 1412.97L3696.06 1412.97L3696.06 1243.14z"/>
<path class="l4" d="M4494.77 1208.65L4494.77 1447.46"/>
<path class="l4" d="M4561.11 1168.84L4561.11 1235.18"/>
<path class="l4" d="M4561.11 1420.93L4561.11 1487.26"/>
<path class="l4" d="M4494.77 1420.93L4561.11 1420.93"/>
<path class="l4" d="M4494.77 1235.18L4561.11 1235.18"/>
<path class="l4" d="M4348.83 1328.05L4465.58 1328.05"/>
<path class="l4" d="M4534.58 1434.19L4561.11 1420.93L4534.58 1407.66L4534.58 1434.19"/>
<path class="l4" d="M4460.28 1243.14L4470.89 1243.14L4470.89 1412.97L4460.28 1412.97L4460.28 1243.14z"/>
<path class="l4" d="M4494.77 518.731L4494.77 757.547"/>
<path class="l4" d="M4561.11 478.928L4561.11 545.266"/>
<path class="l4" d="M4561.11 731.012L4561.11 797.35"/>
<path class="l4" d="M4468.24 558.533L4468.24 717.744"/>
<path class="l4" d="M4494.77 731.012L4561.11 731.012"/>
<path class="l4" d="M4494.77 545.266L4561.11 545.266"/>
<path class="l4" d="M4348.83 638.139L4465.58 638.139"/>
<path class="l4" d="M4521.31 531.998L4494.77 545.266L4521.31 558.533L4521.31 531.998"/>
<path class="l4" d="M4460.28 553.226L4470.89 553.226L4470.89 723.051L4460.28 723.051L4460.28 553.226z"/>
<path class="l4" d="M5609.25 1208.65L5609.25 1447.46"/>
<path class="l4" d="M5675.59 1168.84L5675.59 1235.18"/>
<path class="l4" d="M5675.59 1420.93L5675.59 1487.26"/>
<path class="l4" d="M5609.25 1420.93L5675.59 1420.93"/>
<path class="l4" d="M5609.25 1235.18L5675.59 1235.18"/>
<path class="l4" d="M5463.31 1328.05L5580.06 1328.05"/>
<path class="l4" d="M5649.05 1434.19L5675.59 1420.93L5649.05 1407.66L5649.05 1434.19"/>
<path class="l4" d="M5574.75 1243.14L5585.37 1243.14L5585.37 1412.97L5574.75 1412.97L5574.75 1243.14z"/>
<path class="l4" d="M5609.25 677.942L5609.25 916.758"/>
<path class="l4" d="M5675.59 638.139L5675.59 704.477"/>
<path class="l4" d="M5675.59 890.223L5675.59 956.561"/>
<path class="l4" d="M5582.72 717.744L5582.72 876.956"/>
<path class="l4" d="M5609.25 890.223L5675.59 890.223"/>
<path class="l4" d="M5609.25 704.477L5675.59 704.477"/>
<path class="l4" d="M5463.31 797.35L5580.06 797.35"/>
<path class="l4" d="M5635.79 691.209L5609.25 704.477L5635.79 717.744L5635.79 691.209"/>
<path class="l4" d="M5574.75 712.437L5585.37 712.437L5585.37 882.263L5574.75 882.263L5574.75 712.437z"/>
<path class="l4" d="M3672.18 518.731L3672.18 757.547"/>
<path class="l4" d="M3605.84 478.928L3605.84 545.266"/>
<path class="l4" d="M3605.84 731.012L3605.84 797.35"/>
<path class="l4" d="M3698.72 558.533L3698.72 717.744"/>
<path class="l4" d="M3605.84 731.012L3672.18 731.012"/>
<path class="l4" d="M3605.84 545.266L3672.18 545.266"/>
<path class="l4" d="M3701.37 638.139L3818.13 638.139"/>
<path class="l4" d="M3645.65 531.998L3672.18 545.266L3645.65 558.533L3645.65 531.998"/>
<path class="l4" d="M3696.06 553.226L3706.68 553.226L3706.68 723.051L3696.06 723.051L3696.06 553.226z"/>
<path class="l4" d="M6259.36 266.646L6259.36 319.717"/>
<path class="l4" d="M6259.36 266.646L6312.43 266.646"/>
<path class="l4" d="M6259.36 1168.84L6259.36 1221.91"/>
<path class="l4" d="M6259.36 1168.84L6312.43 1168.84"/>
<path class="l5" d="M1323.82 1341.32L1297.28 1328.05L1323.82 1314.79L1323.82 1341.32"/>
<path class="l5" d="M1310.55 1155.57L1337.09 1155.57L1337.09 1182.11L1310.55 1182.11L1310.55 1155.57z"/>
<path class="l5" d="M1098.27 1314.79L1124.8 1314.79L1124.8 1341.32L1098.27 1341.32L1098.27 1314.79z"/>
<path class="l5" d="M1310.55 1474L1337.09 1474L1337.09 1500.53L1310.55 1500.53L1310.55 1474z"/>
<path class="l5" d="M1323.4 1327.64L1324.23 1327.64L1324.23 1328.47L1323.4 1328.47L1323.4 1327.64z"/>
<path class="l5" d="M1297.28 784.082L1323.82 797.35L1297.28 810.618L1297.28 784.082"/>
<path class="l5" d="M1310.55 943.293L1337.09 943.293L1337.09 969.829L1310.55 969.829L1310.55 943.293z"/>
<path class="l5" d="M1098.27 784.082L1124.8 784.082L1124.8 810.618L1098.27 810.618L1098.27 784.082z"/>
<path class="l5" d="M1310.55 624.871L1337.09 624.871L1337.09 651.406L1310.55 651.406L1310.55 624.871z"/>
<path class="l5" d="M1323.4 796.935L1324.23 796.935L1324.23 797.765L1323.4 797.765L1323.4 796.935z"/>
<path class="l5" d="M2332.16 1341.32L2305.62 1328.05L2332.16 1314.79L2332.16 1341.32"/>
<path class="l5" d="M2318.89 1155.57L2345.42 1155.57L2345.42 1182.11L2318.89 1182.11L2318.89 1155.57z"/>
<path class="l5" d="M2106.61 1314.79L2133.14 1314.79L2133.14 1341.32L2106.61 1341.32L2106.61 1314.79z"/>
<path class="l5" d="M2318.89 1474L2345.42 1474L2345.42 1500.53L2318.89 1500.53L2318.89 1474z"/>
<path class="l5" d="M2331.74 1327.64L2332.57 1327.64L2332.57 1328.47L2331.74 1328.47L2331.74 1327.64z"/>
<path class="l5" d="M2305.62 784.082L2332.16 797.35L2305.62 810.618L2305.62 784.082"/>
<path class="l5" d="M2318.89 943.293L2345.42 943.293L2345.42 969.829L2318.89 969.829L2318.89 943.293z"/>
<path class="l5" d="M2106.61 784.082L2133.14 784.082L2133.14 810.618L2106.61 810.618L2106.61 784.082z"/>
<path class="l5" d="M2318.89 624.871L2345.42 624.871L2345.42 651.406L2318.89 651.406L2318.89 624.871z"/>
<path class="l5" d="M2331.74 796.935L2332.57 796.935L2332.57 797.765L2331.74 797.765L2331.74 796.935z"/>
<path class="l5" d="M3605.84 1341.32L3632.38 1328.05L3605.84 1314.79L3605.84 1341.32"/>
<path class="l5" d="M3592.58 1155.57L3619.11 1155.57L3619.11 1182.11L3592.58 1182.11L3592.58 1155.57z"/>
<path class="l5" d="M3804.86 1314.79L3831.39 1314.79L3831.39 1341.32L3804.86 1341.32L3804.86 1314.79z"/>
<path class="l5" d="M3592.58 1474L3619.11 1474L3619.11 1500.53L3592.58 1500.53L3592.58 1474z"/>
<path class="l5" d="M3605.43 1327.64L3606.26 1327.64L3606.26 1328.47L3605.43 1328.47L3605.43 1327.64z"/>
<path class="l5" d="M4561.11 1341.32L4534.58 1328.05L4561.11 1314.79L4561.11 1341.32"/>
<path class="l5" d="M4547.84 1155.57L4574.38 1155.57L4574.38 1182.11L4547.84 1182.11L4547.84 1155.57z"/>
<path class="l5" d="M4335.56 1314.79L4362.1 1314.79L4362.1 1341.32L4335.56 1341.32L4335.56 1314.79z"/>
<path class="l5" d="M4547.84 1474L4574.38 1474L4574.38 1500.53L4547.84 1500.53L4547.84 1474z"/>
<path class="l5" d="M4560.7 1327.64L4561.53 1327.64L4561.53 1328.47L4560.7 1328.47L4560.7 1327.64z"/>
<path class="l5" d="M4534.58 624.871L4561.11 638.139L4534.58 651.406L4534.58 624.871"/>
<path class="l5" d="M4547.84 784.082L4574.38 784.082L4574.38 810.618L4547.84 810.618L4547.84 784.082z"/>
<path class="l5" d="M4335.56 624.871L4362.1 624.871L4362.1 651.406L4335.56 651.406L4335.56 624.871z"/>
<path class="l5" d="M4547.84 465.66L4574.38 465.66L4574.38 492.195L4547.84 492.195L4547.84 465.66z"/>
<path class="l5" d="M4560.7 637.724L4561.53 637.724L4561.53 638.553L4560.7 638.553L4560.7 637.724z"/>
<path class="l5" d="M5675.59 1341.32L5649.05 1328.05L5675.59 1314.79L5675.59 1341.32"/>
<path class="l5" d="M5662.32 1155.57L5688.86 1155.57L5688.86 1182.11L5662.32 1182.11L5662.32 1155.57z"/>
<path class="l5" d="M5450.04 1314.79L5476.57 1314.79L5476.57 1341.32L5450.04 1341.32L5450.04 1314.79z"/>
<path class="l5" d="M5662.32 1474L5688.86 1474L5688.86 1500.53L5662.32 1500.53L5662.32 1474z"/>
<path class="l5" d="M5675.17 1327.64L5676 1327.64L5676 1328.47L5675.17 1328.47L5675.17 1327.64z"/>
<path class="l5" d="M5649.05 784.082L5675.59 797.35L5649.05 810.618L5649.05 784.082"/>
<path class="l5" d="M5662.32 943.293L5688.86 943.293L5688.86 969.829L5662.32 969.829L5662.32 943.293z"/>
<path class="l5" d="M5450.04 784.082L5476.57 784.082L5476.57 810.618L5450.04 810.618L5450.04 784.082z"/>
<path class="l5" d="M5662.32 624.871L5688.86 624.871L5688.86 651.406L5662.32 651.406L5662.32 624.871z"/>
<path class="l5" d="M5675.17 796.935L5676 796.935L5676 797.765L5675.17 797.765L5675.17 796.935z"/>
<path class="l5" d="M3632.38 624.871L3605.84 638.139L3632.38 651.406L3632.38 624.871"/>
<path class="l5" d="M3592.58 784.082L3619.11 784.082L3619.11 810.618L3592.58 810.618L3592.58 784.082z"/>
<path class="l5" d="M3804.86 624.871L3831.39 624.871L3831.39 651.406L3804.86 651.406L3804.86 624.871z"/>
<path class="l5" d="M3592.58 465.66L3619.11 465.66L3619.11 492.195L3592.58 492.195L3592.58 465.66z"/>
<path class="l5" d="M3605.43 637.724L3606.26 637.724L3606.26 638.553L3605.43 638.553L3605.43 637.724z"/>
<path class="l5" d="M723.46 372.787L740.044 372.787"/>
<path class="l5" d="M667.073 399.322L647.171 372.787L667.073 346.252L703.559 346.252L723.46 372.787L703.559 399.322L667.073 399.322"/>
<path class="l5" d="M733.411 366.153L746.678 366.153L746.678 379.421L733.411 379.421L733.411 366.153z"/>
<path class="l5" d="M723.46 1593.41L740.044 1593.41"/>
<path class="l5" d="M667.073 1619.94L647.171 1593.41L667.073 1566.87L703.559 1566.87L723.46 1593.41L703.559 1619.94L667.073 1619.94"/>
<path class="l5" d="M733.411 1586.77L746.678 1586.77L746.678 1600.04L733.411 1600.04L733.411 1586.77z"/>
<path class="l5" d="M723.46 531.998L740.044 531.998"/>
<path class="l5" d="M667.073 558.533L647.171 531.998L667.073 505.463L703.559 505.463L723.46 531.998L703.559 558.533L667.073 558.533"/>
<path class="l5" d="M733.411 525.364L746.678 525.364L746.678 538.632L733.411 538.632L733.411 525.364z"/>
<path class="l5" d="M713.509 1062.7L740.044 1062.7"/>
<path class="l5" d="M713.509 1062.7L693.608 1036.17L647.171 1036.17L667.073 1062.7L647.171 1089.24L693.608 1089.24L713.509 1062.7"/>
<path class="l5" d="M733.411 1056.07L746.678 1056.07L746.678 1069.34L733.411 1069.34L733.411 1056.07z"/>
<path class="l5" d="M6206.29 1062.7L6252.73 1062.7"/>
<path class="l5" d="M6299.17 1062.7L6279.26 1036.17L6232.83 1036.17L6252.73 1062.7L6232.83 1089.24L6279.26 1089.24L6299.17 1062.7"/>
<path class="l5" d="M6199.66 1056.07L6212.93 1056.07L6212.93 1069.34L6199.66 1069.34L6199.66 1056.07z"/>
<path class="l5" d="M3121.58 1003L3134.84 1003L3134.84 1016.27L3121.58 1016.27L3121.58 1003z"/>
<path class="l5" d="M3121.58 1109.14L3134.84 1109.14L3134.84 1122.41L3121.58 1122.41L3121.58 1109.14z"/>
<path class="l5" d="M3599.21 896.857L3612.48 896.857L3612.48 910.124L3599.21 910.124L3599.21 896.857z"/>
<path class="l5" d="M4554.48 1056.07L4567.74 1056.07L4567.74 1069.34L4554.48 1069.34L4554.48 1056.07z"/>
<path class="l5" d="M899.255 2150.64L897.597 2152.3L895.939 2153.96L894.28 2155.62L892.622 2157.28L890.963 2158.94L889.305 2160.59L887.646 2162.25L885.988 2163.91L884.329 2165.57L882.671 2167.23L881.013 2168.89L879.354 2170.55L877.696 2172.2L876.037 2173.86L874.379 2175.52L872.72 2177.18L871.062 2178.84L869.403 2180.5L867.745 2182.15L866.086 2183.81L864.428 2185.47L862.77 2187.13L861.111 2188.79L859.453 2190.45L857.794 2192.11L856.136 2193.76L854.477 2195.42L852.819 2197.08L851.16 2198.74L849.502 2200.4L847.844 2202.06L846.185 2203.71L846.185 2203.71L844.578 2205.37L843.076 2207.03L841.676 2208.69L840.381 2210.35L839.189 2212.01L838.1 2213.67L837.115 2215.32L836.234 2216.98L835.457 2218.64L834.783 2220.3L834.213 2221.96L833.747 2223.62L833.384 2225.27L833.125 2226.93L832.969 2228.59L832.918 2230.25L832.969 2231.91L833.125 2233.57L833.384 2235.23L833.747 2236.88L834.213 2238.54L834.783 2240.2L835.457 2241.86L836.234 2243.52L837.115 2245.18L838.1 2246.83L839.189 2248.49L840.381 2250.15L841.676 2251.81L843.076 2253.47L844.578 2255.13L846.185 2256.79L846.185 2256.79L847.85 2258.45L849.528 2260.13L851.219 2261.82L852.923 2263.52L854.639 2265.24L856.369 2266.97L858.112 2268.71L859.867 2270.47L861.636 2272.24L863.417 2274.02L865.212 2275.81L867.019 2277.62L868.84 2279.44L870.673 2281.27L872.519 2283.12L874.379 2284.98L876.251 2286.85L878.136 2288.74L880.034 2290.63L881.945 2292.55L883.869 2294.47L885.806 2296.41L887.756 2298.36L889.719 2300.32L891.695 2302.3L893.684 2304.28L895.686 2306.29L897.701 2308.3L899.728 2310.33L901.769 2312.37L903.823 2314.42L905.889 2316.49L905.889 2316.49L907.949 2318.55L909.984 2320.58L911.992 2322.59L913.974 2324.57L915.931 2326.53L917.861 2328.46L919.766 2330.37L921.645 2332.24L923.497 2334.1L925.324 2335.92L927.125 2337.73L928.9 2339.5L930.649 2341.25L932.373 2342.97L934.07 2344.67L935.741 2346.34L937.387 2347.99L939.006 2349.61L940.6 2351.2L942.168 2352.77L943.71 2354.31L945.226 2355.83L946.716 2357.32L948.18 2358.78L949.618 2360.22L951.03 2361.63L952.417 2363.02L953.777 2364.38L955.112 2365.71L956.42 2367.02L957.703 2368.3L958.96 2369.56L958.96 2369.56L960.165 2370.78L961.292 2371.97L962.341 2373.12L963.313 2374.22L964.207 2375.29L965.023 2376.32L965.762 2377.31L966.423 2378.27L967.006 2379.18L967.511 2380.05L967.939 2380.89L968.288 2381.69L968.56 2382.44L968.755 2383.16L968.871 2383.84L968.91 2384.49L968.871 2385.09L968.755 2385.65L968.56 2386.18L968.288 2386.66L967.939 2387.11L967.511 2387.52L967.006 2387.89L966.423 2388.22L965.762 2388.51L965.023 2388.76L964.207 2388.98L963.313 2389.15L962.341 2389.29L961.292 2389.38L960.165 2389.44L958.96 2389.46L958.96 2389.46L957.716 2389.46L956.472 2389.46L955.228 2389.46L953.984 2389.46L952.74 2389.46L951.497 2389.46L950.253 2389.46L949.009 2389.46L947.765 2389.46L946.521 2389.46L945.277 2389.46L944.034 2389.46L942.79 2389.46L941.546 2389.46L940.302 2389.46L939.058 2389.46L937.814 2389.46L936.571 2389.46L935.327 2389.46L934.083 2389.46L932.839 2389.46L931.595 2389.46L930.351 2389.46L929.108 2389.46L927.864 2389.46L926.62 2389.46L925.376 2389.46L924.132 2389.46L922.888 2389.46L921.645 2389.46L920.401 2389.46L919.157 2389.46L919.157 2389.46L917.92 2389.46L916.695 2389.46L915.484 2389.46L914.285 2389.46L913.1 2389.46L911.927 2389.46L910.767 2389.46L909.621 2389.46L908.487 2389.46L907.366 2389.46L906.259 2389.46L905.164 2389.46L904.082 2389.46L903.013 2389.46L901.957 2389.46L900.914 2389.46L899.884 2389.46L898.867 2389.46L897.863 2389.46L896.871 2389.46L895.893 2389.46L894.928 2389.46L893.976 2389.46L893.036 2389.46L892.11 2389.46L891.196 2389.46L890.296 2389.46L889.408 2389.46L888.534 2389.46L887.672 2389.46L886.824 2389.46L885.988 2389.46L885.988 2389.46L885.159 2389.45L884.329 2389.41L883.5 2389.34L882.671 2389.25L881.842 2389.14L881.013 2388.99L880.183 2388.83L879.354 2388.63L878.525 2388.41L877.696 2388.17L876.866 2387.89L876.037 2387.6L875.208 2387.27L874.379 2386.92L873.55 2386.55L872.72 2386.14L871.891 2385.72L871.062 2385.26L870.233 2384.78L869.403 2384.28L868.574 2383.75L867.745 2383.19L866.916 2382.61L866.086 2382L865.257 2381.36L864.428 2380.7L863.599 2380.02L862.77 2379.3L861.94 2378.56L861.111 2377.8L860.282 2377.01L859.453 2376.19L859.453 2376.19L858.623 2375.36L857.794 2374.53L856.965 2373.71L856.136 2372.88L855.307 2372.05L854.477 2371.22L853.648 2370.39L852.819 2369.56L851.99 2368.73L851.16 2367.9L850.331 2367.07L849.502 2366.24L848.673 2365.41L847.844 2364.58L847.014 2363.75L846.185 2362.93L845.356 2362.1L844.527 2361.27L843.697 2360.44L842.868 2359.61L842.039 2358.78L841.21 2357.95L840.381 2357.12L839.551 2356.29L838.722 2355.46L837.893 2354.63L837.064 2353.8L836.234 2352.98L835.405 2352.15L834.576 2351.32L833.747 2350.49L832.918 2349.66L832.918 2349.66L832.075 2348.82L831.207 2347.95L830.313 2347.05L829.393 2346.13L828.447 2345.19L827.476 2344.22L826.478 2343.22L825.454 2342.2L824.405 2341.15L823.33 2340.07L822.228 2338.97L821.101 2337.84L819.948 2336.69L818.769 2335.51L817.564 2334.3L816.333 2333.07L815.076 2331.82L813.794 2330.53L812.485 2329.23L811.15 2327.89L809.79 2326.53L808.404 2325.14L806.991 2323.73L805.553 2322.29L804.089 2320.83L802.599 2319.34L801.083 2317.82L799.541 2316.28L797.973 2314.71L796.38 2313.12L794.76 2311.5L793.115 2309.86L793.115 2309.86L791.456 2308.25L789.798 2306.75L788.139 2305.35L786.481 2304.05L784.822 2302.86L783.164 2301.77L781.506 2300.79L779.847 2299.9L778.189 2299.13L776.53 2298.45L774.872 2297.88L773.213 2297.42L771.555 2297.05L769.896 2296.8L768.238 2296.64L766.58 2296.59L764.921 2296.64L763.263 2296.8L761.604 2297.05L759.946 2297.42L758.287 2297.88L756.629 2298.45L754.97 2299.13L753.312 2299.9L751.654 2300.79L749.995 2301.77L748.337 2302.86L746.678 2304.05L745.02 2305.35L743.361 2306.75L741.703 2308.25L740.044 2309.86L740.044 2309.86L738.399 2311.5L736.779 2313.12L735.186 2314.71L733.618 2316.28L732.076 2317.82L730.56 2319.34L729.07 2320.83L727.606 2322.29L726.168 2323.73L724.756 2325.14L723.369 2326.53L722.009 2327.89L720.674 2329.23L719.366 2330.53L718.083 2331.82L716.826 2333.07L715.595 2334.3L714.39 2335.51L713.211 2336.69L712.058 2337.84L710.931 2338.97L709.83 2340.07L708.754 2341.15L707.705 2342.2L706.681 2343.22L705.683 2344.22L704.712 2345.19L703.766 2346.13L702.846 2347.05L701.952 2347.95L701.084 2348.82L700.242 2349.66L700.242 2349.66L699.412 2350.49L698.583 2351.32L697.754 2352.15L696.925 2352.98L696.095 2353.8L695.266 2354.63L694.437 2355.46L693.608 2356.29L692.779 2357.12L691.949 2357.95L691.12 2358.78L690.291 2359.61L689.462 2360.44L688.632 2361.27L687.803 2362.1L686.974 2362.93L686.145 2363.75L685.316 2364.58L684.486 2365.41L683.657 2366.24L682.828 2367.07L681.999 2367.9L681.169 2368.73L680.34 2369.56L679.511 2370.39L678.682 2371.22L677.853 2372.05L677.023 2372.88L676.194 2373.71L675.365 2374.53L674.536 2375.36L673.706 2376.19L673.706 2376.19L672.877 2377.01L672.048 2377.8L671.219 2378.56L670.39 2379.3L669.56 2380.02L668.731 2380.7L667.902 2381.36L667.073 2382L666.243 2382.61L665.414 2383.19L664.585 2383.75L663.756 2384.28L662.927 2384.78L662.097 2385.26L661.268 2385.72L660.439 2386.14L659.61 2386.55L658.78 2386.92L657.951 2387.27L657.122 2387.6L656.293 2387.89L655.463 2388.17L654.634 2388.41L653.805 2388.63L652.976 2388.83L652.147 2388.99L651.317 2389.14L650.488 2389.25L649.659 2389.34L648.83 2389.41L648 2389.45L647.171 2389.46L647.171 2389.46L646.336 2389.46L645.487 2389.46L644.625 2389.46L643.751 2389.46L642.863 2389.46L641.963 2389.46L641.049 2389.46L640.123 2389.46L639.183 2389.46L638.231 2389.46L637.266 2389.46L636.288 2389.46L635.296 2389.46L634.292 2389.46L633.275 2389.46L632.245 2389.46L631.202 2389.46L630.146 2389.46L629.077 2389.46L627.995 2389.46L626.901 2389.46L625.793 2389.46L624.672 2389.46L623.538 2389.46L622.392 2389.46L621.232 2389.46L620.059 2389.46L618.874 2389.46L617.675 2389.46L616.464 2389.46L615.24 2389.46L614.002 2389.46L614.002 2389.46L612.758 2389.46L611.515 2389.46L610.271 2389.46L609.027 2389.46L607.783 2389.46L606.539 2389.46L605.295 2389.46L604.052 2389.46L602.808 2389.46L601.564 2389.46L600.32 2389.46L599.076 2389.46L597.832 2389.46L596.589 2389.46L595.345 2389.46L594.101 2389.46L592.857 2389.46L591.613 2389.46L590.369 2389.46L589.126 2389.46L587.882 2389.46L586.638 2389.46L585.394 2389.46L584.15 2389.46L582.906 2389.46L581.663 2389.46L580.419 2389.46L579.175 2389.46L577.931 2389.46L576.687 2389.46L575.443 2389.46L574.199 2389.46L574.199 2389.46L572.995 2389.44L571.867 2389.38L570.818 2389.29L569.846 2389.15L568.952 2388.98L568.136 2388.76L567.397 2388.51L566.736 2388.22L566.153 2387.89L565.648 2387.52L565.221 2387.11L564.871 2386.66L564.599 2386.18L564.404 2385.65L564.288 2385.09L564.249 2384.49L564.288 2383.84L564.404 2383.16L564.599 2382.44L564.871 2381.69L565.221 2380.89L565.648 2380.05L566.153 2379.18L566.736 2378.27L567.397 2377.31L568.136 2376.32L568.952 2375.29L569.846 2374.22L570.818 2373.12L571.867 2371.97L572.995 2370.78L574.199 2369.56L574.199 2369.56L575.456 2368.3L576.739 2367.02L578.048 2365.71L579.382 2364.38L580.743 2363.02L582.129 2361.63L583.541 2360.22L584.979 2358.78L586.444 2357.32L587.934 2355.83L589.449 2354.31L590.991 2352.77L592.559 2351.2L594.153 2349.61L595.772 2347.99L597.418 2346.34L599.089 2344.67L600.786 2342.97L602.51 2341.25L604.259 2339.5L606.034 2337.73L607.835 2335.92L609.662 2334.1L611.515 2332.24L613.393 2330.37L615.298 2328.46L617.228 2326.53L619.185 2324.57L621.167 2322.59L623.176 2320.58L625.21 2318.55L627.27 2316.49L627.27 2316.49L629.336 2314.42L631.39 2312.37L633.431 2310.33L635.458 2308.3L637.473 2306.29L639.475 2304.28L641.464 2302.3L643.44 2300.32L645.403 2298.36L647.353 2296.41L649.29 2294.47L651.214 2292.55L653.125 2290.63L655.023 2288.74L656.908 2286.85L658.78 2284.98L660.64 2283.12L662.486 2281.27L664.319 2279.44L666.14 2277.62L667.947 2275.81L669.742 2274.02L671.523 2272.24L673.292 2270.47L675.047 2268.71L676.79 2266.97L678.52 2265.24L680.237 2263.52L681.94 2261.82L683.631 2260.13L685.309 2258.45L686.974 2256.79L686.974 2256.79L688.581 2255.13L690.084 2253.47L691.483 2251.81L692.779 2250.15L693.971 2248.49L695.059 2246.83L696.044 2245.18L696.925 2243.52L697.702 2241.86L698.376 2240.2L698.946 2238.54L699.412 2236.88L699.775 2235.23L700.034 2233.57L700.19 2231.91L700.242 2230.25L700.19 2228.59L700.034 2226.93L699.775 2225.27L699.412 2223.62L698.946 2221.96L698.376 2220.3L697.702 2218.64L696.925 2216.98L696.044 2215.32L695.059 2213.67L693.971 2212.01L692.779 2210.35L691.483 2208.69L690.084 2207.03L688.581 2205.37L686.974 2203.71L686.974 2203.71L685.309 2202.05L683.631 2200.37L681.94 2198.68L680.237 2196.98L678.52 2195.26L676.79 2193.53L675.047 2191.79L673.292 2190.03L671.523 2188.26L669.742 2186.48L667.947 2184.69L666.14 2182.88L664.319 2181.06L662.486 2179.23L660.64 2177.38L658.78 2175.52L656.908 2173.65L655.023 2171.76L653.125 2169.87L651.214 2167.95L649.29 2166.03L647.353 2164.09L645.403 2162.14L643.44 2160.18L641.464 2158.2L639.475 2156.22L637.473 2154.21L635.458 2152.2L633.431 2150.17L631.39 2148.13L629.336 2146.08L627.27 2144.01L627.27 2144.01L625.21 2141.95L623.176 2139.92L621.167 2137.91L619.185 2135.93L617.228 2133.97L615.298 2132.04L613.393 2130.13L611.515 2128.26L609.662 2126.4L607.835 2124.58L606.034 2122.77L604.259 2121L602.51 2119.25L600.786 2117.53L599.089 2115.83L597.418 2114.16L595.772 2112.51L594.153 2110.89L592.559 2109.3L590.991 2107.73L589.449 2106.19L587.934 2104.67L586.444 2103.18L584.979 2101.72L583.541 2100.28L582.129 2098.87L580.743 2097.48L579.382 2096.12L578.048 2094.79L576.739 2093.48L575.456 2092.2L574.199 2090.94L574.199 2090.94L572.995 2089.72L571.867 2088.53L570.818 2087.38L569.846 2086.28L568.952 2085.21L568.136 2084.18L567.397 2083.19L566.736 2082.23L566.153 2081.32L565.648 2080.45L565.221 2079.61L564.871 2078.81L564.599 2078.05L564.404 2077.34L564.288 2076.66L564.249 2076.01L564.288 2075.41L564.404 2074.85L564.599 2074.32L564.871 2073.84L565.221 2073.39L565.648 2072.98L566.153 2072.61L566.736 2072.28L567.397 2071.99L568.136 2071.74L568.952 2071.52L569.846 2071.35L570.818 2071.21L571.867 2071.12L572.995 2071.06L574.199 2071.04L574.199 2071.04L575.443 2071.04L576.687 2071.04L577.931 2071.04L579.175 2071.04L580.419 2071.04L581.663 2071.04L582.906 2071.04L584.15 2071.04L585.394 2071.04L586.638 2071.04L587.882 2071.04L589.126 2071.04L590.369 2071.04L591.613 2071.04L592.857 2071.04L594.101 2071.04L595.345 2071.04L596.589 2071.04L597.832 2071.04L599.076 2071.04L600.32 2071.04L601.564 2071.04L602.808 2071.04L604.052 2071.04L605.295 2071.04L606.539 2071.04L607.783 2071.04L609.027 2071.04L610.271 2071.04L611.515 2071.04L612.758 2071.04L614.002 2071.04L614.002 2071.04L615.24 2071.04L616.464 2071.04L617.675 2071.04L618.874 2071.04L620.059 2071.04L621.232 2071.04L622.392 2071.04L623.538 2071.04L624.672 2071.04L625.793 2071.04L626.901 2071.04L627.995 2071.04L629.077 2071.04L630.146 2071.04L631.202 2071.04L632.245 2071.04L633.275 2071.04L634.292 2071.04L635.296 2071.04L636.288 2071.04L637.266 2071.04L638.231 2071.04L639.183 2071.04L640.123 2071.04L641.049 2071.04L641.963 2071.04L642.863 2071.04L643.751 2071.04L644.625 2071.04L645.487 2071.04L646.336 2071.04L647.171 2071.04L647.171 2071.04L648 2071.05L648.83 2071.09L649.659 2071.16L650.488 2071.25L651.317 2071.36L652.147 2071.51L652.976 2071.67L653.805 2071.87L654.634 2072.09L655.463 2072.33L656.293 2072.61L657.122 2072.9L657.951 2073.23L658.78 2073.58L659.61 2073.95L660.439 2074.36L661.268 2074.78L662.097 2075.24L662.927 2075.72L663.756 2076.22L664.585 2076.75L665.414 2077.31L666.243 2077.89L667.073 2078.5L667.902 2079.14L668.731 2079.8L669.56 2080.48L670.39 2081.2L671.219 2081.94L672.048 2082.7L672.877 2083.49L673.706 2084.31L673.706 2084.31L674.536 2085.14L675.365 2085.96L676.194 2086.79L677.023 2087.62L677.853 2088.45L678.682 2089.28L679.511 2090.11L680.34 2090.94L681.169 2091.77L681.999 2092.6L682.828 2093.43L683.657 2094.26L684.486 2095.09L685.316 2095.92L686.145 2096.74L686.974 2097.57L687.803 2098.4L688.632 2099.23L689.462 2100.06L690.291 2100.89L691.12 2101.72L691.949 2102.55L692.779 2103.38L693.608 2104.21L694.437 2105.04L695.266 2105.87L696.095 2106.7L696.925 2107.52L697.754 2108.35L698.583 2109.18L699.412 2110.01L700.242 2110.84L700.242 2110.84L701.084 2111.68L701.952 2112.55L702.846 2113.45L703.766 2114.37L704.712 2115.31L705.683 2116.28L706.681 2117.28L707.705 2118.3L708.754 2119.35L709.83 2120.43L710.931 2121.53L712.058 2122.66L713.211 2123.81L714.39 2124.99L715.595 2126.2L716.826 2127.43L718.083 2128.68L719.366 2129.97L720.674 2131.27L722.009 2132.61L723.369 2133.97L724.756 2135.36L726.168 2136.77L727.606 2138.21L729.07 2139.67L730.56 2141.16L732.076 2142.68L733.618 2144.22L735.186 2145.79L736.779 2147.38L738.399 2149L740.044 2150.64L740.044 2150.64L741.703 2152.25L743.361 2153.75L745.02 2155.15L746.678 2156.45L748.337 2157.64L749.995 2158.73L751.654 2159.71L753.312 2160.59L754.97 2161.37L756.629 2162.05L758.287 2162.62L759.946 2163.08L761.604 2163.45L763.263 2163.7L764.921 2163.86L766.58 2163.91L768.238 2163.86L769.896 2163.7L771.555 2163.45L773.213 2163.08L774.872 2162.62L776.53 2162.05L778.189 2161.37L779.847 2160.59L781.506 2159.71L783.164 2158.73L784.822 2157.64L786.481 2156.45L788.139 2155.15L789.798 2153.75L791.456 2152.25L793.115 2150.64L793.115 2150.64L794.76 2149L796.38 2147.38L797.973 2145.79L799.541 2144.22L801.083 2142.68L802.599 2141.16L804.089 2139.67L805.553 2138.21L806.991 2136.77L808.404 2135.36L809.79 2133.97L811.15 2132.61L812.485 2131.27L813.794 2129.97L815.076 2128.68L816.333 2127.43L817.564 2126.2L818.769 2124.99L819.948 2123.81L821.101 2122.66L822.228 2121.53L823.33 2120.43L824.405 2119.35L825.454 2118.3L826.478 2117.28L827.476 2116.28L828.447 2115.31L829.393 2114.37L830.313 2113.45L831.207 2112.55L832.075 2111.68L832.918 2110.84L832.918 2110.84L833.747 2110.01L834.576 2109.18L835.405 2108.35L836.234 2107.52L837.064 2106.7L837.893 2105.87L838.722 2105.04L839.551 2104.21L840.381 2103.38L841.21 2102.55L842.039 2101.72L842.868 2100.89L843.697 2100.06L844.527 2099.23L845.356 2098.4L846.185 2097.57L847.014 2096.74L847.844 2095.92L848.673 2095.09L849.502 2094.26L850.331 2093.43L851.16 2092.6L851.99 2091.77L852.819 2090.94L853.648 2090.11L854.477 2089.28L855.307 2088.45L856.136 2087.62L856.965 2086.79L857.794 2085.96L858.623 2085.14L859.453 2084.31L859.453 2084.31L860.282 2083.49L861.111 2082.7L861.94 2081.94L862.77 2081.2L863.599 2080.48L864.428 2079.8L865.257 2079.14L866.086 2078.5L866.916 2077.89L867.745 2077.31L868.574 2076.75L869.403 2076.22L870.233 2075.72L871.062 2075.24L871.891 2074.78L872.72 2074.36L873.55 2073.95L874.379 2073.58L875.208 2073.23L876.037 2072.9L876.866 2072.61L877.696 2072.33L878.525 2072.09L879.354 2071.87L880.183 2071.67L881.013 2071.51L881.842 2071.36L882.671 2071.25L883.5 2071.16L884.329 2071.09L885.159 2071.05L885.988 2071.04L885.988 2071.04L886.824 2071.04L887.672 2071.04L888.534 2071.04L889.408 2071.04L890.296 2071.04L891.196 2071.04L892.11 2071.04L893.036 2071.04L893.976 2071.04L894.928 2071.04L895.893 2071.04L896.871 2071.04L897.863 2071.04L898.867 2071.04L899.884 2071.04L900.914 2071.04L901.957 2071.04L903.013 2071.04L904.082 2071.04L905.164 2071.04L906.259 2071.04L907.366 2071.04L908.487 2071.04L909.621 2071.04L910.767 2071.04L911.927 2071.04L913.1 2071.04L914.285 2071.04L915.484 2071.04L916.695 2071.04L917.92 2071.04L919.157 2071.04L919.157 2071.04L920.401 2071.04L921.645 2071.04L922.888 2071.04L924.132 2071.04L925.376 2071.04L926.62 2071.04L927.864 2071.04L929.108 2071.04L930.351 2071.04L931.595 2071.04L932.839 2071.04L934.083 2071.04L935.327 2071.04L936.571 2071.04L937.814 2071.04L939.058 2071.04L940.302 2071.04L941.546 2071.04L942.79 2071.04L944.034 2071.04L945.277 2071.04L946.521 2071.04L947.765 2071.04L949.009 2071.04L950.253 2071.04L951.497 2071.04L952.74 2071.04L953.984 2071.04L955.228 2071.04L956.472 2071.04L957.716 2071.04L958.96 2071.04L958.96 2071.04L960.165 2071.06L961.292 2071.12L962.341 2071.21L963.313 2071.35L964.207 2071.52L965.023 2071.74L965.762 2071.99L966.423 2072.28L967.006 2072.61L967.511 2072.98L967.939 2073.39L968.288 2073.84L968.56 2074.32L968.755 2074.85L968.871 2075.41L968.91 2076.01L968.871 2076.66L968.755 2077.34L968.56 2078.05L968.288 2078.81L967.939 2079.61L967.511 2080.45L967.006 2081.32L966.423 2082.23L965.762 2083.19L965.023 2084.18L964.207 2085.21L963.313 2086.28L962.341 2087.38L961.292 2088.53L960.165 2089.72L958.96 2090.94L958.96 2090.94L957.696 2092.2L956.394 2093.51L955.053 2094.85L953.673 2096.23L952.255 2097.65L950.797 2099.1L949.3 2100.6L947.765 2102.13L946.191 2103.71L944.578 2105.32L942.926 2106.97L941.235 2108.66L939.505 2110.39L937.737 2112.16L935.929 2113.97L934.083 2115.82L932.198 2117.7L930.274 2119.63L928.311 2121.59L926.309 2123.59L924.268 2125.63L922.189 2127.71L920.07 2129.83L917.913 2131.99L915.717 2134.18L913.482 2136.42L911.208 2138.69L908.895 2141L906.544 2143.36L904.153 2145.75L901.724 2148.18L899.255 2150.64"/>
<path class="l6" d="M2146.41 2230.25L6365.5 2230.25"/>
<path class="l6" d="M103.2 2230.25L448.157 2230.25"/>
<text fill="#000000"  xml:space="preserve" font-size="55.1932" transform="translate(1161.21, 1218.96)" >M1</text>
<text fill="#000000"  xml:space="preserve" font-size="41.3949" transform="translate(1132.61, 1312.57)" >G</text>
<text fill="#000000"  xml:space="preserve" font-size="55.1932" transform="translate(1376.89, 1480.71)" >sg13_lv_nmos</text>
<text fill="#000000"  xml:space="preserve" font-size="55.1932" transform="translate(1383.52, 1411.34)" >m=1</text>
<text fill="#000000"  xml:space="preserve" font-size="55.1932" transform="translate(1383.52, 1364.9)" >ng=1</text>
<text fill="#000000"  xml:space="preserve" font-size="55.1932" transform="translate(1383.52, 1298.56)" >l=0.13u</text>
<text fill="#000000"  xml:space="preserve" font-size="55.1932" transform="translate(1383.52, 1238.86)" >w=0.15u</text>
<text fill="#000000"  xml:space="preserve" font-size="41.3949" transform="translate(1337.09, 1458.51)" >S</text>
<text fill="#000000"  xml:space="preserve" font-size="41.3949" transform="translate(1337.09, 1225.29)" >D</text>
<text fill="#000000"  xml:space="preserve" font-size="41.3949" transform="translate(1323.82, 1312.57)" >B</text>
<text fill="#000000"  xml:space="preserve" font-size="55.1932" transform="translate(1161.21, 688.254)" >M2</text>
<text fill="#000000"  xml:space="preserve" font-size="41.3949" transform="translate(1132.61, 781.866)" >G</text>
<text fill="#000000"  xml:space="preserve" font-size="55.1932" transform="translate(1376.89, 950.004)" >sg13_lv_pmos</text>
<text fill="#000000"  xml:space="preserve" font-size="55.1932" transform="translate(1383.52, 880.634)" >m=1</text>
<text fill="#000000"  xml:space="preserve" font-size="55.1932" transform="translate(1383.52, 834.198)" >ng=1</text>
<text fill="#000000"  xml:space="preserve" font-size="55.1932" transform="translate(1383.52, 767.86)" >l=0.13u</text>
<text fill="#000000"  xml:space="preserve" font-size="55.1932" transform="translate(1383.52, 708.156)" >w=0.3u</text>
<text fill="#000000"  xml:space="preserve" font-size="41.3949" transform="translate(1337.09, 927.81)" >D</text>
<text fill="#000000"  xml:space="preserve" font-size="41.3949" transform="translate(1337.09, 694.583)" >S</text>
<text fill="#000000"  xml:space="preserve" font-size="41.3949" transform="translate(1323.82, 781.866)" >B</text>
<text fill="#000000"  xml:space="preserve" font-size="55.1932" transform="translate(2169.55, 1218.96)" >M3</text>
<text fill="#000000"  xml:space="preserve" font-size="41.3949" transform="translate(2140.94, 1312.57)" >G</text>
<text fill="#000000"  xml:space="preserve" font-size="55.1932" transform="translate(2385.23, 1480.71)" >sg13_lv_nmos</text>
<text fill="#000000"  xml:space="preserve" font-size="55.1932" transform="translate(2391.86, 1411.34)" >m=1</text>
<text fill="#000000"  xml:space="preserve" font-size="55.1932" transform="translate(2391.86, 1364.9)" >ng=1</text>
<text fill="#000000"  xml:space="preserve" font-size="55.1932" transform="translate(2391.86, 1298.56)" >l=0.13u</text>
<text fill="#000000"  xml:space="preserve" font-size="55.1932" transform="translate(2391.86, 1238.86)" >w=0.15u</text>
<text fill="#000000"  xml:space="preserve" font-size="41.3949" transform="translate(2345.42, 1458.51)" >S</text>
<text fill="#000000"  xml:space="preserve" font-size="41.3949" transform="translate(2345.42, 1225.29)" >D</text>
<text fill="#000000"  xml:space="preserve" font-size="41.3949" transform="translate(2332.16, 1312.57)" >B</text>
<text fill="#000000"  xml:space="preserve" font-size="55.1932" transform="translate(2169.55, 688.254)" >M4</text>
<text fill="#000000"  xml:space="preserve" font-size="41.3949" transform="translate(2140.94, 781.866)" >G</text>
<text fill="#000000"  xml:space="preserve" font-size="55.1932" transform="translate(2385.23, 950.004)" >sg13_lv_pmos</text>
<text fill="#000000"  xml:space="preserve" font-size="55.1932" transform="translate(2391.86, 880.634)" >m=1</text>
<text fill="#000000"  xml:space="preserve" font-size="55.1932" transform="translate(2391.86, 834.198)" >ng=1</text>
<text fill="#000000"  xml:space="preserve" font-size="55.1932" transform="translate(2391.86, 767.86)" >l=0.13u</text>
<text fill="#000000"  xml:space="preserve" font-size="55.1932" transform="translate(2391.86, 708.156)" >w=0.3u</text>
<text fill="#000000"  xml:space="preserve" font-size="41.3949" transform="translate(2345.42, 927.81)" >D</text>
<text fill="#000000"  xml:space="preserve" font-size="41.3949" transform="translate(2345.42, 694.583)" >S</text>
<text fill="#000000"  xml:space="preserve" font-size="41.3949" transform="translate(2332.16, 781.866)" >B</text>
<text fill="#000000"  xml:space="preserve" font-size="55.1932" transform="translate(3685.45, 1218.96)" >M5</text>
<text fill="#000000"  xml:space="preserve" font-size="41.3949" transform="translate(3765.06, 1312.57)" >G</text>
<text fill="#000000"  xml:space="preserve" font-size="55.1932" transform="translate(3142.77, 1480.71)" >sg13_hv_nmos</text>
<text fill="#000000"  xml:space="preserve" font-size="41.3949" transform="translate(3566.58, 1458.51)" >S</text>
<text fill="#000000"  xml:space="preserve" font-size="41.3949" transform="translate(3560.58, 1225.29)" >D</text>
<text fill="#000000"  xml:space="preserve" font-size="41.3949" transform="translate(3577.84, 1312.57)" >B</text>
<text fill="#000000"  xml:space="preserve" font-size="55.1932" transform="translate(3411.14, 1411.34)" >m=1</text>
<text fill="#000000"  xml:space="preserve" font-size="55.1932" transform="translate(3395.14, 1364.9)" >ng=1</text>
<text fill="#000000"  xml:space="preserve" font-size="55.1932" transform="translate(3327.14, 1298.56)" >l=0.45u</text>
<text fill="#000000"  xml:space="preserve" font-size="55.1932" transform="translate(3385.14, 1238.86)" >w=1u</text>
<text fill="#000000"  xml:space="preserve" font-size="55.1932" transform="translate(4398.51, 1218.96)" >M6</text>
<text fill="#000000"  xml:space="preserve" font-size="41.3949" transform="translate(4369.9, 1312.57)" >G</text>
<text fill="#000000"  xml:space="preserve" font-size="55.1932" transform="translate(4614.18, 1480.71)" >sg13_hv_nmos</text>
<text fill="#000000"  xml:space="preserve" font-size="41.3949" transform="translate(4574.38, 1458.51)" >S</text>
<text fill="#000000"  xml:space="preserve" font-size="41.3949" transform="translate(4574.38, 1225.29)" >D</text>
<text fill="#000000"  xml:space="preserve" font-size="41.3949" transform="translate(4561.11, 1312.57)" >B</text>
<text fill="#000000"  xml:space="preserve" font-size="55.1932" transform="translate(4620.81, 1411.34)" >m=1</text>
<text fill="#000000"  xml:space="preserve" font-size="55.1932" transform="translate(4620.81, 1364.9)" >ng=1</text>
<text fill="#000000"  xml:space="preserve" font-size="55.1932" transform="translate(4620.81, 1298.56)" >l=0.45u</text>
<text fill="#000000"  xml:space="preserve" font-size="55.1932" transform="translate(4620.81, 1238.86)" >w=1u</text>
<text fill="#000000"  xml:space="preserve" font-size="55.1932" transform="translate(4398.51, 529.043)" >M7</text>
<text fill="#000000"  xml:space="preserve" font-size="41.3949" transform="translate(4369.9, 622.655)" >G</text>
<text fill="#000000"  xml:space="preserve" font-size="55.1932" transform="translate(4614.18, 790.793)" >sg13_hv_pmos</text>
<text fill="#000000"  xml:space="preserve" font-size="41.3949" transform="translate(4574.38, 768.599)" >D</text>
<text fill="#000000"  xml:space="preserve" font-size="41.3949" transform="translate(4574.38, 535.372)" >S</text>
<text fill="#000000"  xml:space="preserve" font-size="41.3949" transform="translate(4561.11, 622.655)" >B</text>
<text fill="#000000"  xml:space="preserve" font-size="55.1932" transform="translate(4620.81, 721.423)" >m=1</text>
<text fill="#000000"  xml:space="preserve" font-size="55.1932" transform="translate(4620.81, 674.987)" >ng=1</text>
<text fill="#000000"  xml:space="preserve" font-size="55.1932" transform="translate(4620.81, 608.649)" >l=0.45u</text>
<text fill="#000000"  xml:space="preserve" font-size="55.1932" transform="translate(4620.81, 548.945)" >w=0.3u</text>
<text fill="#000000"  xml:space="preserve" font-size="55.1932" transform="translate(5512.98, 1218.96)" >M9</text>
<text fill="#000000"  xml:space="preserve" font-size="41.3949" transform="translate(5484.38, 1312.57)" >G</text>
<text fill="#000000"  xml:space="preserve" font-size="55.1932" transform="translate(5728.66, 1480.71)" >sg13_hv_nmos</text>
<text fill="#000000"  xml:space="preserve" font-size="41.3949" transform="translate(5688.86, 1458.51)" >S</text>
<text fill="#000000"  xml:space="preserve" font-size="41.3949" transform="translate(5688.86, 1225.29)" >D</text>
<text fill="#000000"  xml:space="preserve" font-size="41.3949" transform="translate(5675.59, 1312.57)" >B</text>
<text fill="#000000"  xml:space="preserve" font-size="55.1932" transform="translate(5735.29, 1411.34)" >m=4</text>
<text fill="#000000"  xml:space="preserve" font-size="55.1932" transform="translate(5735.29, 1364.9)" >ng=1</text>
<text fill="#000000"  xml:space="preserve" font-size="55.1932" transform="translate(5735.29, 1298.56)" >l=0.45u</text>
<text fill="#000000"  xml:space="preserve" font-size="55.1932" transform="translate(5735.29, 1238.86)" >w=0.3u</text>
<text fill="#000000"  xml:space="preserve" font-size="55.1932" transform="translate(5477.98, 688.254)" >M10</text>
<text fill="#000000"  xml:space="preserve" font-size="41.3949" transform="translate(5484.38, 781.866)" >G</text>
<text fill="#000000"  xml:space="preserve" font-size="55.1932" transform="translate(5728.66, 950.004)" >sg13_hv_pmos</text>
<text fill="#000000"  xml:space="preserve" font-size="41.3949" transform="translate(5688.86, 927.81)" >D</text>
<text fill="#000000"  xml:space="preserve" font-size="41.3949" transform="translate(5688.86, 694.583)" >S</text>
<text fill="#000000"  xml:space="preserve" font-size="41.3949" transform="translate(5675.59, 781.866)" >B</text>
<text fill="#000000"  xml:space="preserve" font-size="55.1932" transform="translate(5735.29, 880.634)" >m=4</text>
<text fill="#000000"  xml:space="preserve" font-size="55.1932" transform="translate(5735.29, 834.198)" >ng=1</text>
<text fill="#000000"  xml:space="preserve" font-size="55.1932" transform="translate(5735.29, 767.86)" >l=0.45u</text>
<text fill="#000000"  xml:space="preserve" font-size="55.1932" transform="translate(5735.29, 708.156)" >w=0.6u</text>
<text fill="#000000"  xml:space="preserve" font-size="55.1932" transform="translate(3685.45, 529.043)" >M8</text>
<text fill="#000000"  xml:space="preserve" font-size="41.3949" transform="translate(3765.06, 622.655)" >G</text>
<text fill="#000000"  xml:space="preserve" font-size="55.1932" transform="translate(3142.77, 790.793)" >sg13_hv_pmos</text>
<text fill="#000000"  xml:space="preserve" font-size="41.3949" transform="translate(3560.58, 768.599)" >D</text>
<text fill="#000000"  xml:space="preserve" font-size="41.3949" transform="translate(3566.58, 535.372)" >S</text>
<text fill="#000000"  xml:space="preserve" font-size="41.3949" transform="translate(3577.84, 622.655)" >B</text>
<text fill="#000000"  xml:space="preserve" font-size="55.1932" transform="translate(3411.14, 721.423)" >m=1</text>
<text fill="#000000"  xml:space="preserve" font-size="55.1932" transform="translate(3395.14, 674.987)" >ng=1</text>
<text fill="#000000"  xml:space="preserve" font-size="55.1932" transform="translate(3327.14, 608.649)" >l=0.45u</text>
<text fill="#000000"  xml:space="preserve" font-size="55.1932" transform="translate(3332.14, 548.945)" >w=0.3u</text>
<text fill="#000000"  xml:space="preserve" font-size="91.0687" transform="translate(264.733, 405.724)" >PLAVDD</text>
<text fill="#000000"  xml:space="preserve" font-size="55.1932" transform="translate(749.995, 443.633)" >3.3</text>
<text fill="#000000"  xml:space="preserve" font-size="91.0687" transform="translate(350.733, 1626.34)" >PLVSS</text>
<text fill="#000000"  xml:space="preserve" font-size="55.1932" transform="translate(749.995, 1664.25)" >0.0</text>
<text fill="#000000"  xml:space="preserve" font-size="91.0687" transform="translate(256.733, 564.935)" >PLDVDD</text>
<text fill="#000000"  xml:space="preserve" font-size="55.1932" transform="translate(749.995, 602.844)" >1.2</text>
<text fill="#000000"  xml:space="preserve" font-size="91.0687" transform="translate(494.537, 1098.96)" >LIN</text>
<text fill="#000000"  xml:space="preserve" font-size="55.1932" transform="translate(749.995, 1133.55)" >1.2</text>
<text fill="#000000"  xml:space="preserve" font-size="91.0687" transform="translate(6312.43, 1098.96)" >LOUT</text>
<text fill="#000000"  xml:space="preserve" font-size="55.1932" transform="translate(6003.34, 1133.55)" >3.2212</text>
<text fill="#000000"  xml:space="preserve" font-size="74.5108" transform="translate(2784.94, 985.19)" >n_lin_buf</text>
<text fill="#000000"  xml:space="preserve" font-size="55.1932" transform="translate(3138.16, 1081.65)" >54.82n</text>
<text fill="#000000"  xml:space="preserve" font-size="74.5108" transform="translate(2868.94, 1091.33)" >lin_buf</text>
<text fill="#000000"  xml:space="preserve" font-size="55.1932" transform="translate(3138.16, 1187.79)" >1.2</text>
<text fill="#000000"  xml:space="preserve" font-size="74.5108" transform="translate(3341.58, 879.049)" >q_unbf</text>
<text fill="#000000"  xml:space="preserve" font-size="55.1932" transform="translate(3615.79, 975.506)" >3.3</text>
<text fill="#000000"  xml:space="preserve" font-size="74.5108" transform="translate(4212.84, 1038.26)" >n_q_unbf</text>
<text fill="#000000"  xml:space="preserve" font-size="55.1932" transform="translate(4571.06, 1134.72)" >591.45p</text>
<text fill="#000000"  xml:space="preserve" font-size="55.1932" style="font-family:Monospace;" transform="translate(6285.9, 343.297)" >ids   = 40.265u</text>
<text fill="#000000"  xml:space="preserve" font-size="55.1932" style="font-family:Monospace;" transform="translate(6285.9, 406.603)" >gm    = 8.9u</text>
<text fill="#000000"  xml:space="preserve" font-size="55.1932" style="font-family:Monospace;" transform="translate(6285.9, 469.91)" >gds   = 502.12u</text>
<text fill="#000000"  xml:space="preserve" font-size="55.1932" style="font-family:Monospace;" transform="translate(6285.9, 533.217)" >vth   = 0.65097</text>
<text fill="#000000"  xml:space="preserve" font-size="55.1932" style="font-family:Monospace;" transform="translate(6285.9, 596.523)" >vgs   = 3.3</text>
<text fill="#000000"  xml:space="preserve" font-size="55.1932" style="font-family:Monospace;" transform="translate(6285.9, 659.83)" >vdss  = 1.6546</text>
<text fill="#000000"  xml:space="preserve" font-size="55.1932" style="font-family:Monospace;" transform="translate(6285.9, 723.136)" >vds   = 78.791m</text>
<text fill="#000000"  xml:space="preserve" font-size="55.1932" style="font-family:Monospace;" transform="translate(6285.9, 786.443)" >cgg   = 5.5673f</text>
<text fill="#000000"  xml:space="preserve" font-size="55.1932" style="font-family:Monospace;" transform="translate(6285.9, 849.75)" >ft    = 254.43M</text>
<text fill="#000000"  xml:space="preserve" font-size="55.1932" style="font-family:Monospace;" transform="translate(6285.9, 913.056)" >gm/id = 0.22103</text>
<text fill="#000000"  xml:space="preserve" font-size="55.1932" transform="translate(6259.36, 253.455)" >M10</text>
<text fill="#000000"  xml:space="preserve" font-size="55.1932" style="font-family:Monospace;" transform="translate(6285.9, 1245.49)" >ids   = 180.44f</text>
<text fill="#000000"  xml:space="preserve" font-size="55.1932" style="font-family:Monospace;" transform="translate(6285.9, 1308.8)" >gm    = 4.2681p</text>
<text fill="#000000"  xml:space="preserve" font-size="55.1932" style="font-family:Monospace;" transform="translate(6285.9, 1372.11)" >gds   = 119.15f</text>
<text fill="#000000"  xml:space="preserve" font-size="55.1932" style="font-family:Monospace;" transform="translate(6285.9, 1435.41)" >vth   = 0.57872</text>
<text fill="#000000"  xml:space="preserve" font-size="55.1932" style="font-family:Monospace;" transform="translate(6285.9, 1498.72)" >vgs   = 591.45p</text>
<text fill="#000000"  xml:space="preserve" font-size="55.1932" style="font-family:Monospace;" transform="translate(6285.9, 1562.03)" >vdss  = 0.10665</text>
<text fill="#000000"  xml:space="preserve" font-size="55.1932" style="font-family:Monospace;" transform="translate(6285.9, 1625.33)" >vds   = 3.2212</text>
<text fill="#000000"  xml:space="preserve" font-size="55.1932" style="font-family:Monospace;" transform="translate(6285.9, 1688.64)" >cgg   = 1.394f</text>
<text fill="#000000"  xml:space="preserve" font-size="55.1932" style="font-family:Monospace;" transform="translate(6285.9, 1751.95)" >ft    = 487.31</text>
<text fill="#000000"  xml:space="preserve" font-size="55.1932" style="font-family:Monospace;" transform="translate(6285.9, 1815.25)" >gm/id = 23.654</text>
<text fill="#000000"  xml:space="preserve" font-size="55.1932" transform="translate(6259.36, 1155.65)" >M9</text>
<text fill="#000000"  xml:space="preserve" font-size="110.386" transform="translate(2199.48, 2357.02)" >x1.         digital_level_translator.sch</text>
<text fill="#000000"  xml:space="preserve" font-size="110.386" transform="translate(2199.48, 2197.8)" >Pascal Gesell</text>
<text fill="#000000"  xml:space="preserve" font-size="110.386" transform="translate(5161.5, 2197.8)" >2026-03-23  10:51:29</text>
<text fill="#000000"  xml:space="preserve" font-size="275.966" transform="translate(978.861, 2348.15)" >SCHEM</text>
<path class="l1" d="M1323.82 1062.7L1323.82 1168.84"/>
<path class="l1" d="M1323.82 531.998L1323.82 638.139"/>
<path class="l1" d="M1323.82 531.998L1376.89 531.998"/>
<path class="l1" d="M1376.89 531.998L1376.89 797.35"/>
<path class="l1" d="M1323.82 797.35L1376.89 797.35"/>
<path class="l1" d="M1323.82 1328.05L1376.89 1328.05"/>
<path class="l1" d="M1376.89 1328.05L1376.89 1593.41"/>
<path class="l1" d="M1323.82 1593.41L1376.89 1593.41"/>
<path class="l1" d="M1323.82 1487.26L1323.82 1593.41"/>
<path class="l1" d="M1058.47 1328.05L1111.54 1328.05"/>
<path class="l1" d="M1058.47 1062.7L1058.47 1328.05"/>
<path class="l1" d="M1058.47 797.35L1111.54 797.35"/>
<path class="l1" d="M2332.16 1115.77L2332.16 1168.84"/>
<path class="l1" d="M2332.16 956.561L2332.16 1115.77"/>
<path class="l1" d="M2332.16 531.998L2332.16 638.139"/>
<path class="l1" d="M2332.16 531.998L2385.23 531.998"/>
<path class="l1" d="M2385.23 531.998L2385.23 797.35"/>
<path class="l1" d="M2332.16 797.35L2385.23 797.35"/>
<path class="l1" d="M2332.16 1328.05L2385.23 1328.05"/>
<path class="l1" d="M2385.23 1328.05L2385.23 1593.41"/>
<path class="l1" d="M2332.16 1593.41L2385.23 1593.41"/>
<path class="l1" d="M2332.16 1487.26L2332.16 1593.41"/>
<path class="l1" d="M2066.8 1328.05L2119.87 1328.05"/>
<path class="l1" d="M2066.8 1062.7L2066.8 1328.05"/>
<path class="l1" d="M2066.8 797.35L2119.87 797.35"/>
<path class="l1" d="M2066.8 1009.63L2066.8 1062.7"/>
<path class="l1" d="M1323.82 1062.7L2066.8 1062.7"/>
<path class="l1" d="M1323.82 956.561L1323.82 1062.7"/>
<path class="l1" d="M1376.89 1593.41L2332.16 1593.41"/>
<path class="l1" d="M1376.89 531.998L2332.16 531.998"/>
<path class="l1" d="M4614.18 1593.41L5675.59 1593.41"/>
<path class="l1" d="M5675.59 956.561L5675.59 1062.7"/>
<path class="l1" d="M5675.59 1062.7L6206.29 1062.7"/>
<path class="l1" d="M5675.59 1062.7L5675.59 1168.84"/>
<path class="l1" d="M5410.24 1328.05L5463.31 1328.05"/>
<path class="l1" d="M5410.24 1062.7L5410.24 1328.05"/>
<path class="l1" d="M5410.24 797.35L5463.31 797.35"/>
<path class="l1" d="M5675.59 1487.26L5675.59 1593.41"/>
<path class="l1" d="M5728.66 1328.05L5728.66 1593.41"/>
<path class="l1" d="M5675.59 1328.05L5728.66 1328.05"/>
<path class="l1" d="M5675.59 1593.41L5728.66 1593.41"/>
<path class="l1" d="M5675.59 797.35L5728.66 797.35"/>
<path class="l1" d="M5675.59 372.787L5675.59 638.139"/>
<path class="l1" d="M5675.59 372.787L5728.66 372.787"/>
<path class="l1" d="M5728.66 372.787L5728.66 797.35"/>
<path class="l1" d="M4561.11 1062.7L4561.11 1168.84"/>
<path class="l1" d="M4561.11 1062.7L5410.24 1062.7"/>
<path class="l1" d="M5410.24 797.35L5410.24 1062.7"/>
<path class="l1" d="M4561.11 797.35L4561.11 903.491"/>
<path class="l1" d="M4561.11 638.139L4614.18 638.139"/>
<path class="l1" d="M4614.18 372.787L5675.59 372.787"/>
<path class="l1" d="M4242.69 638.139L4348.83 638.139"/>
<path class="l1" d="M3818.13 903.491L4242.69 638.139"/>
<path class="l1" d="M3605.84 903.491L3818.13 903.491"/>
<path class="l1" d="M3605.84 797.35L3605.84 903.491"/>
<path class="l1" d="M3818.13 638.139L3924.27 638.139"/>
<path class="l1" d="M3924.27 638.139L4348.83 903.491"/>
<path class="l1" d="M4348.83 903.491L4561.11 903.491"/>
<path class="l1" d="M3605.84 1487.26L3605.84 1593.41"/>
<path class="l1" d="M3552.77 1593.41L3605.84 1593.41"/>
<path class="l1" d="M4561.11 1487.26L4561.11 1593.41"/>
<path class="l1" d="M3605.84 1593.41L4561.11 1593.41"/>
<path class="l1" d="M2066.8 1009.63L3924.27 1009.63"/>
<path class="l1" d="M2066.8 797.35L2066.8 1009.63"/>
<path class="l1" d="M3818.13 1328.05L3924.27 1328.05"/>
<path class="l1" d="M4242.69 1115.77L4242.69 1328.05"/>
<path class="l1" d="M2332.16 1115.77L4242.69 1115.77"/>
<path class="l1" d="M4242.69 1328.05L4348.83 1328.05"/>
<path class="l1" d="M3924.27 1009.63L3924.27 1328.05"/>
<path class="l1" d="M3605.84 903.491L3605.84 1168.84"/>
<path class="l1" d="M4561.11 903.491L4561.11 1062.7"/>
<path class="l1" d="M4561.11 372.787L4561.11 478.928"/>
<path class="l1" d="M3605.84 372.787L4561.11 372.787"/>
<path class="l1" d="M3605.84 372.787L3605.84 478.928"/>
<path class="l1" d="M3552.77 372.787L3605.84 372.787"/>
<path class="l1" d="M4614.18 372.787L4614.18 638.139"/>
<path class="l1" d="M4561.11 372.787L4614.18 372.787"/>
<path class="l1" d="M3552.77 638.139L3605.84 638.139"/>
<path class="l1" d="M3552.77 372.787L3552.77 638.139"/>
<path class="l1" d="M1058.47 797.35L1058.47 1062.7"/>
<path class="l1" d="M740.044 1593.41L1323.82 1593.41"/>
<path class="l1" d="M740.044 1062.7L1058.47 1062.7"/>
<path class="l1" d="M740.044 531.998L1323.82 531.998"/>
<path class="l1" d="M740.044 372.787L3552.77 372.787"/>
<path class="l1" d="M3552.77 1328.05L3605.84 1328.05"/>
<path class="l1" d="M3552.77 1328.05L3552.77 1593.41"/>
<path class="l1" d="M2385.23 1593.41L3552.77 1593.41"/>
<path class="l1" d="M4561.11 1328.05L4614.18 1328.05"/>
<path class="l1" d="M4614.18 1328.05L4614.18 1593.41"/>
<path class="l1" d="M4561.11 1593.41L4614.18 1593.41"/>
<circle class="l1" cx="3552.77" cy="372.787" r="19.636"/>
<circle class="l1" cx="1323.82" cy="531.998" r="19.636"/>
<circle class="l1" cx="1058.47" cy="1062.7" r="19.636"/>
<circle class="l1" cx="1323.82" cy="1593.41" r="19.636"/>
<circle class="l1" cx="1058.47" cy="1062.7" r="19.636"/>
<circle class="l1" cx="2066.8" cy="1009.63" r="19.636"/>
<circle class="l1" cx="2066.8" cy="1009.63" r="19.636"/>
<circle class="l1" cx="1376.89" cy="531.998" r="19.636"/>
<circle class="l1" cx="2332.16" cy="531.998" r="19.636"/>
<circle class="l1" cx="1376.89" cy="1593.41" r="19.636"/>
<circle class="l1" cx="2332.16" cy="1593.41" r="19.636"/>
<circle class="l1" cx="1323.82" cy="1062.7" r="19.636"/>
<circle class="l1" cx="1323.82" cy="1062.7" r="19.636"/>
<circle class="l1" cx="2066.8" cy="1062.7" r="19.636"/>
<circle class="l1" cx="2066.8" cy="1009.63" r="19.636"/>
<circle class="l1" cx="2066.8" cy="1062.7" r="19.636"/>
<circle class="l1" cx="2066.8" cy="1062.7" r="19.636"/>
<circle class="l1" cx="1058.47" cy="1062.7" r="19.636"/>
<circle class="l1" cx="1323.82" cy="1593.41" r="19.636"/>
<circle class="l1" cx="1323.82" cy="1593.41" r="19.636"/>
<circle class="l1" cx="1376.89" cy="1593.41" r="19.636"/>
<circle class="l1" cx="1376.89" cy="1593.41" r="19.636"/>
<circle class="l1" cx="1376.89" cy="531.998" r="19.636"/>
<circle class="l1" cx="1323.82" cy="531.998" r="19.636"/>
<circle class="l1" cx="1376.89" cy="531.998" r="19.636"/>
<circle class="l1" cx="1323.82" cy="531.998" r="19.636"/>
<circle class="l1" cx="1323.82" cy="1062.7" r="19.636"/>
<circle class="l1" cx="2385.23" cy="1593.41" r="19.636"/>
<circle class="l1" cx="3552.77" cy="1593.41" r="19.636"/>
<circle class="l1" cx="3552.77" cy="1593.41" r="19.636"/>
<circle class="l1" cx="3552.77" cy="372.787" r="19.636"/>
<circle class="l1" cx="3552.77" cy="372.787" r="19.636"/>
<circle class="l1" cx="3605.84" cy="372.787" r="19.636"/>
<circle class="l1" cx="3605.84" cy="372.787" r="19.636"/>
<circle class="l1" cx="3605.84" cy="372.787" r="19.636"/>
<circle class="l1" cx="4561.11" cy="372.787" r="19.636"/>
<circle class="l1" cx="3605.84" cy="903.491" r="19.636"/>
<circle class="l1" cx="2332.16" cy="1115.77" r="19.636"/>
<circle class="l1" cx="3605.84" cy="1593.41" r="19.636"/>
<circle class="l1" cx="4561.11" cy="1593.41" r="19.636"/>
<circle class="l1" cx="3552.77" cy="1593.41" r="19.636"/>
<circle class="l1" cx="3605.84" cy="1593.41" r="19.636"/>
<circle class="l1" cx="3605.84" cy="1593.41" r="19.636"/>
<circle class="l1" cx="3605.84" cy="903.491" r="19.636"/>
<circle class="l1" cx="3605.84" cy="903.491" r="19.636"/>
<circle class="l1" cx="2332.16" cy="1593.41" r="19.636"/>
<circle class="l1" cx="2332.16" cy="1593.41" r="19.636"/>
<circle class="l1" cx="2385.23" cy="1593.41" r="19.636"/>
<circle class="l1" cx="2385.23" cy="1593.41" r="19.636"/>
<circle class="l1" cx="2332.16" cy="531.998" r="19.636"/>
<circle class="l1" cx="2332.16" cy="531.998" r="19.636"/>
<circle class="l1" cx="2332.16" cy="1115.77" r="19.636"/>
<circle class="l1" cx="2332.16" cy="1115.77" r="19.636"/>
<circle class="l1" cx="4561.11" cy="1593.41" r="19.636"/>
<circle class="l1" cx="4614.18" cy="1593.41" r="19.636"/>
<circle class="l1" cx="4614.18" cy="1593.41" r="19.636"/>
<circle class="l1" cx="4561.11" cy="372.787" r="19.636"/>
<circle class="l1" cx="4614.18" cy="372.787" r="19.636"/>
<circle class="l1" cx="4614.18" cy="372.787" r="19.636"/>
<circle class="l1" cx="4561.11" cy="372.787" r="19.636"/>
<circle class="l1" cx="4561.11" cy="903.491" r="19.636"/>
<circle class="l1" cx="4561.11" cy="1062.7" r="19.636"/>
<circle class="l1" cx="4561.11" cy="1593.41" r="19.636"/>
<circle class="l1" cx="4561.11" cy="903.491" r="19.636"/>
<circle class="l1" cx="4614.18" cy="372.787" r="19.636"/>
<circle class="l1" cx="5675.59" cy="372.787" r="19.636"/>
<circle class="l1" cx="4561.11" cy="903.491" r="19.636"/>
<circle class="l1" cx="5410.24" cy="1062.7" r="19.636"/>
<circle class="l1" cx="4561.11" cy="1062.7" r="19.636"/>
<circle class="l1" cx="5410.24" cy="1062.7" r="19.636"/>
<circle class="l1" cx="4561.11" cy="1062.7" r="19.636"/>
<circle class="l1" cx="5675.59" cy="372.787" r="19.636"/>
<circle class="l1" cx="5675.59" cy="372.787" r="19.636"/>
<circle class="l1" cx="5675.59" cy="1593.41" r="19.636"/>
<circle class="l1" cx="5675.59" cy="1593.41" r="19.636"/>
<circle class="l1" cx="5410.24" cy="1062.7" r="19.636"/>
<circle class="l1" cx="5675.59" cy="1062.7" r="19.636"/>
<circle class="l1" cx="5675.59" cy="1062.7" r="19.636"/>
<circle class="l1" cx="5675.59" cy="1062.7" r="19.636"/>
<circle class="l1" cx="4614.18" cy="1593.41" r="19.636"/>
<circle class="l1" cx="5675.59" cy="1593.41" r="19.636"/>
</svg>
