<svg xmlns="http://www.w3.org/2000/svg" xmlns:xlink="http://www.w3.org/1999/xlink" width="6880" height="2621" version="1.1">
<style type="text/css">
.l0{
  fill: #ffffff;
  stroke: #ffffff;
  stroke-linecap:round;
  stroke-linejoin:round;
  stroke-width: 6.44677;
}
.l1{
  fill: #000000;
  stroke: #000000;
  stroke-linecap:round;
  stroke-linejoin:round;
  stroke-width: 6.44677;
}
.l2{
  fill: #000000; fill-opacity: 0.2;
  stroke: #000000;
  stroke-linecap:round;
  stroke-linejoin:round;
  stroke-width: 6.44677;
}
.l3{
  fill: #000000; fill-opacity: 0.5;
  stroke: #000000;
  stroke-linecap:round;
  stroke-linejoin:round;
  stroke-width: 6.44677;
}
.l4{
  fill: #000000;
  stroke: #000000;
  stroke-linecap:round;
  stroke-linejoin:round;
  stroke-width: 6.44677;
}
.l5{
  fill: #000000;
  stroke: #000000;
  stroke-linecap:round;
  stroke-linejoin:round;
  stroke-width: 6.44677;
}
.l6{
  fill: #000000; fill-opacity: 0.5;
  stroke: #000000;
  stroke-linecap:round;
  stroke-linejoin:round;
  stroke-width: 6.44677;
}
.l7{
  fill: #000000; fill-opacity: 0.5;
  stroke: #000000;
  stroke-linecap:round;
  stroke-linejoin:round;
  stroke-width: 6.44677;
}
.l8{
  fill: #000000; fill-opacity: 0.5;
  stroke: #000000;
  stroke-linecap:round;
  stroke-linejoin:round;
  stroke-width: 6.44677;
}
.l9{
  fill: #000000; fill-opacity: 0.5;
  stroke: #000000;
  stroke-linecap:round;
  stroke-linejoin:round;
  stroke-width: 6.44677;
}
.l10{
  fill: #000000;
  stroke: #000000;
  stroke-linecap:round;
  stroke-linejoin:round;
  stroke-width: 6.44677;
}
.l11{
  fill: #000000; fill-opacity: 0.5;
  stroke: #000000;
  stroke-linecap:round;
  stroke-linejoin:round;
  stroke-width: 6.44677;
}
.l12{
  fill: #000000; fill-opacity: 0.5;
  stroke: #000000;
  stroke-linecap:round;
  stroke-linejoin:round;
  stroke-width: 6.44677;
}
.l13{
  fill: #000000; fill-opacity: 0.5;
  stroke: #000000;
  stroke-linecap:round;
  stroke-linejoin:round;
  stroke-width: 6.44677;
}
.l14{
  fill: #000000; fill-opacity: 0.2;
  stroke: #000000;
  stroke-linecap:round;
  stroke-linejoin:round;
  stroke-width: 6.44677;
}
.l15{
  fill: #000000; fill-opacity: 0.5;
  stroke: #000000;
  stroke-linecap:round;
  stroke-linejoin:round;
  stroke-width: 6.44677;
}
.l16{
  fill: #000000; fill-opacity: 0.5;
  stroke: #000000;
  stroke-linecap:round;
  stroke-linejoin:round;
  stroke-width: 6.44677;
}
.l17{
  fill: #000000; fill-opacity: 0.2;
  stroke: #000000;
  stroke-linecap:round;
  stroke-linejoin:round;
  stroke-width: 6.44677;
}
.l18{
  fill: #000000; fill-opacity: 0.5;
  stroke: #000000;
  stroke-linecap:round;
  stroke-linejoin:round;
  stroke-width: 6.44677;
}
.l19{
  fill: #000000; fill-opacity: 0.2;
  stroke: #000000;
  stroke-linecap:round;
  stroke-linejoin:round;
  stroke-width: 6.44677;
}
.l20{
  fill: #000000; fill-opacity: 0.2;
  stroke: #000000;
  stroke-linecap:round;
  stroke-linejoin:round;
  stroke-width: 6.44677;
}
.l21{
  fill: #000000; fill-opacity: 0.2;
  stroke: #000000;
  stroke-linecap:round;
  stroke-linejoin:round;
  stroke-width: 6.44677;
}
text {font-family: Sans-Serif;}
</style>
<rect class="l0" x="0" y="0" width="6880" height="2621"/>
<path class="l4" d="M1810.4 1218.85L1810.4 1433.74"/>
<path class="l4" d="M1870.09 1183.03L1870.09 1242.73"/>
<path class="l4" d="M1870.09 1409.86L1870.09 1469.56"/>
<path class="l4" d="M1786.52 1254.66L1786.52 1397.93"/>
<path class="l4" d="M1810.4 1409.86L1870.09 1409.86"/>
<path class="l4" d="M1810.4 1242.73L1870.09 1242.73"/>
<path class="l4" d="M1679.08 1326.3L1784.14 1326.3"/>
<path class="l4" d="M1846.22 1421.8L1870.09 1409.86L1846.22 1397.93L1846.22 1421.8"/>
<path class="l4" d="M1810.4 741.311L1810.4 956.203"/>
<path class="l4" d="M1870.09 705.495L1870.09 765.188"/>
<path class="l4" d="M1870.09 932.326L1870.09 992.018"/>
<path class="l4" d="M1786.52 777.126L1786.52 920.388"/>
<path class="l4" d="M1810.4 932.326L1870.09 932.326"/>
<path class="l4" d="M1810.4 765.188L1870.09 765.188"/>
<path class="l4" d="M1679.08 848.757L1784.14 848.757"/>
<path class="l4" d="M1834.28 753.249L1810.4 765.188L1834.28 777.126L1834.28 753.249"/>
<path class="l4" d="M2717.72 1218.85L2717.72 1433.74"/>
<path class="l4" d="M2777.41 1183.03L2777.41 1242.73"/>
<path class="l4" d="M2777.41 1409.86L2777.41 1469.56"/>
<path class="l4" d="M2693.85 1254.66L2693.85 1397.93"/>
<path class="l4" d="M2717.72 1409.86L2777.41 1409.86"/>
<path class="l4" d="M2717.72 1242.73L2777.41 1242.73"/>
<path class="l4" d="M2586.4 1326.3L2691.46 1326.3"/>
<path class="l4" d="M2753.54 1421.8L2777.41 1409.86L2753.54 1397.93L2753.54 1421.8"/>
<path class="l4" d="M2717.72 741.311L2717.72 956.203"/>
<path class="l4" d="M2777.41 705.495L2777.41 765.188"/>
<path class="l4" d="M2777.41 932.326L2777.41 992.018"/>
<path class="l4" d="M2693.85 777.126L2693.85 920.388"/>
<path class="l4" d="M2717.72 932.326L2777.41 932.326"/>
<path class="l4" d="M2717.72 765.188L2777.41 765.188"/>
<path class="l4" d="M2586.4 848.757L2691.46 848.757"/>
<path class="l4" d="M2741.6 753.249L2717.72 765.188L2741.6 777.126L2741.6 753.249"/>
<path class="l4" d="M3983.2 1218.85L3983.2 1433.74"/>
<path class="l4" d="M3923.51 1183.03L3923.51 1242.73"/>
<path class="l4" d="M3923.51 1409.86L3923.51 1469.56"/>
<path class="l4" d="M3923.51 1409.86L3983.2 1409.86"/>
<path class="l4" d="M3923.51 1242.73L3983.2 1242.73"/>
<path class="l4" d="M4009.46 1326.3L4114.52 1326.3"/>
<path class="l4" d="M3947.38 1421.8L3923.51 1409.86L3947.38 1397.93L3947.38 1421.8"/>
<path class="l4" d="M4004.69 1249.89L4014.24 1249.89L4014.24 1402.7L4004.69 1402.7L4004.69 1249.89z"/>
<path class="l4" d="M4723.38 1218.85L4723.38 1433.74"/>
<path class="l4" d="M4783.08 1183.03L4783.08 1242.73"/>
<path class="l4" d="M4783.08 1409.86L4783.08 1469.56"/>
<path class="l4" d="M4723.38 1409.86L4783.08 1409.86"/>
<path class="l4" d="M4723.38 1242.73L4783.08 1242.73"/>
<path class="l4" d="M4592.06 1326.3L4697.12 1326.3"/>
<path class="l4" d="M4759.2 1421.8L4783.08 1409.86L4759.2 1397.93L4759.2 1421.8"/>
<path class="l4" d="M4692.34 1249.89L4701.89 1249.89L4701.89 1402.7L4692.34 1402.7L4692.34 1249.89z"/>
<path class="l4" d="M4723.38 598.049L4723.38 812.941"/>
<path class="l4" d="M4783.08 562.234L4783.08 621.926"/>
<path class="l4" d="M4783.08 789.064L4783.08 848.757"/>
<path class="l4" d="M4699.51 633.865L4699.51 777.126"/>
<path class="l4" d="M4723.38 789.064L4783.08 789.064"/>
<path class="l4" d="M4723.38 621.926L4783.08 621.926"/>
<path class="l4" d="M4592.06 705.495L4697.12 705.495"/>
<path class="l4" d="M4747.26 609.988L4723.38 621.926L4747.26 633.865L4747.26 609.988"/>
<path class="l4" d="M4692.34 629.089L4701.89 629.089L4701.89 781.901L4692.34 781.901L4692.34 629.089z"/>
<path class="l4" d="M5726.21 1218.85L5726.21 1433.74"/>
<path class="l4" d="M5785.91 1183.03L5785.91 1242.73"/>
<path class="l4" d="M5785.91 1409.86L5785.91 1469.56"/>
<path class="l4" d="M5726.21 1409.86L5785.91 1409.86"/>
<path class="l4" d="M5726.21 1242.73L5785.91 1242.73"/>
<path class="l4" d="M5594.89 1326.3L5699.95 1326.3"/>
<path class="l4" d="M5762.03 1421.8L5785.91 1409.86L5762.03 1397.93L5762.03 1421.8"/>
<path class="l4" d="M5695.17 1249.89L5704.72 1249.89L5704.72 1402.7L5695.17 1402.7L5695.17 1249.89z"/>
<path class="l4" d="M5726.21 741.311L5726.21 956.203"/>
<path class="l4" d="M5785.91 705.495L5785.91 765.188"/>
<path class="l4" d="M5785.91 932.326L5785.91 992.018"/>
<path class="l4" d="M5702.34 777.126L5702.34 920.388"/>
<path class="l4" d="M5726.21 932.326L5785.91 932.326"/>
<path class="l4" d="M5726.21 765.188L5785.91 765.188"/>
<path class="l4" d="M5594.89 848.757L5699.95 848.757"/>
<path class="l4" d="M5750.09 753.249L5726.21 765.188L5750.09 777.126L5750.09 753.249"/>
<path class="l4" d="M5695.17 772.351L5704.72 772.351L5704.72 925.163L5695.17 925.163L5695.17 772.351z"/>
<path class="l4" d="M3983.2 598.049L3983.2 812.941"/>
<path class="l4" d="M3923.51 562.234L3923.51 621.926"/>
<path class="l4" d="M3923.51 789.064L3923.51 848.757"/>
<path class="l4" d="M4007.08 633.865L4007.08 777.126"/>
<path class="l4" d="M3923.51 789.064L3983.2 789.064"/>
<path class="l4" d="M3923.51 621.926L3983.2 621.926"/>
<path class="l4" d="M4009.46 705.495L4114.52 705.495"/>
<path class="l4" d="M3959.32 609.988L3983.2 621.926L3959.32 633.865L3959.32 609.988"/>
<path class="l4" d="M4004.69 629.089L4014.24 629.089L4014.24 781.901L4004.69 781.901L4004.69 629.089z"/>
<path class="l4" d="M6311.2 371.218L6311.2 418.972"/>
<path class="l4" d="M6311.2 371.218L6358.95 371.218"/>
<path class="l4" d="M6311.2 1183.03L6311.2 1230.79"/>
<path class="l4" d="M6311.2 1183.03L6358.95 1183.03"/>
<path class="l4" d="M1046.34 1218.85L1046.34 1433.74"/>
<path class="l4" d="M1106.03 1183.03L1106.03 1242.73"/>
<path class="l4" d="M1106.03 1409.86L1106.03 1469.56"/>
<path class="l4" d="M1022.46 1254.66L1022.46 1397.93"/>
<path class="l4" d="M1046.34 1409.86L1106.03 1409.86"/>
<path class="l4" d="M1046.34 1242.73L1106.03 1242.73"/>
<path class="l4" d="M915.015 1326.3L1020.07 1326.3"/>
<path class="l4" d="M1082.15 1421.8L1106.03 1409.86L1082.15 1397.93L1082.15 1421.8"/>
<path class="l4" d="M1046.34 741.311L1046.34 956.203"/>
<path class="l4" d="M1106.03 705.495L1106.03 765.188"/>
<path class="l4" d="M1106.03 932.326L1106.03 992.018"/>
<path class="l4" d="M1022.46 777.126L1022.46 920.388"/>
<path class="l4" d="M1046.34 932.326L1106.03 932.326"/>
<path class="l4" d="M1046.34 765.188L1106.03 765.188"/>
<path class="l4" d="M915.015 848.757L1020.07 848.757"/>
<path class="l4" d="M1070.22 753.249L1046.34 765.188L1070.22 777.126L1070.22 753.249"/>
<path class="l5" d="M1870.09 1338.23L1846.22 1326.3L1870.09 1314.36L1870.09 1338.23"/>
<path class="l5" d="M1858.15 1171.1L1882.03 1171.1L1882.03 1194.97L1858.15 1194.97L1858.15 1171.1z"/>
<path class="l5" d="M1667.14 1314.36L1691.02 1314.36L1691.02 1338.23L1667.14 1338.23L1667.14 1314.36z"/>
<path class="l5" d="M1858.15 1457.62L1882.03 1457.62L1882.03 1481.5L1858.15 1481.5L1858.15 1457.62z"/>
<path class="l5" d="M1869.72 1325.92L1870.46 1325.92L1870.46 1326.67L1869.72 1326.67L1869.72 1325.92z"/>
<path class="l5" d="M1846.22 836.818L1870.09 848.757L1846.22 860.695L1846.22 836.818"/>
<path class="l5" d="M1858.15 980.08L1882.03 980.08L1882.03 1003.96L1858.15 1003.96L1858.15 980.08z"/>
<path class="l5" d="M1667.14 836.818L1691.02 836.818L1691.02 860.695L1667.14 860.695L1667.14 836.818z"/>
<path class="l5" d="M1858.15 693.557L1882.03 693.557L1882.03 717.434L1858.15 717.434L1858.15 693.557z"/>
<path class="l5" d="M1869.72 848.384L1870.46 848.384L1870.46 849.13L1869.72 849.13L1869.72 848.384z"/>
<path class="l5" d="M2777.41 1338.23L2753.54 1326.3L2777.41 1314.36L2777.41 1338.23"/>
<path class="l5" d="M2765.48 1171.1L2789.35 1171.1L2789.35 1194.97L2765.48 1194.97L2765.48 1171.1z"/>
<path class="l5" d="M2574.46 1314.36L2598.34 1314.36L2598.34 1338.23L2574.46 1338.23L2574.46 1314.36z"/>
<path class="l5" d="M2765.48 1457.62L2789.35 1457.62L2789.35 1481.5L2765.48 1481.5L2765.48 1457.62z"/>
<path class="l5" d="M2777.04 1325.92L2777.79 1325.92L2777.79 1326.67L2777.04 1326.67L2777.04 1325.92z"/>
<path class="l5" d="M2753.54 836.818L2777.41 848.757L2753.54 860.695L2753.54 836.818"/>
<path class="l5" d="M2765.48 980.08L2789.35 980.08L2789.35 1003.96L2765.48 1003.96L2765.48 980.08z"/>
<path class="l5" d="M2574.46 836.818L2598.34 836.818L2598.34 860.695L2574.46 860.695L2574.46 836.818z"/>
<path class="l5" d="M2765.48 693.557L2789.35 693.557L2789.35 717.434L2765.48 717.434L2765.48 693.557z"/>
<path class="l5" d="M2777.04 848.384L2777.79 848.384L2777.79 849.13L2777.04 849.13L2777.04 848.384z"/>
<path class="l5" d="M3923.51 1338.23L3947.38 1326.3L3923.51 1314.36L3923.51 1338.23"/>
<path class="l5" d="M3911.57 1171.1L3935.45 1171.1L3935.45 1194.97L3911.57 1194.97L3911.57 1171.1z"/>
<path class="l5" d="M4102.58 1314.36L4126.46 1314.36L4126.46 1338.23L4102.58 1338.23L4102.58 1314.36z"/>
<path class="l5" d="M3911.57 1457.62L3935.45 1457.62L3935.45 1481.5L3911.57 1481.5L3911.57 1457.62z"/>
<path class="l5" d="M3923.13 1325.92L3923.88 1325.92L3923.88 1326.67L3923.13 1326.67L3923.13 1325.92z"/>
<path class="l5" d="M4783.08 1338.23L4759.2 1326.3L4783.08 1314.36L4783.08 1338.23"/>
<path class="l5" d="M4771.14 1171.1L4795.01 1171.1L4795.01 1194.97L4771.14 1194.97L4771.14 1171.1z"/>
<path class="l5" d="M4580.12 1314.36L4604 1314.36L4604 1338.23L4580.12 1338.23L4580.12 1314.36z"/>
<path class="l5" d="M4771.14 1457.62L4795.01 1457.62L4795.01 1481.5L4771.14 1481.5L4771.14 1457.62z"/>
<path class="l5" d="M4782.7 1325.92L4783.45 1325.92L4783.45 1326.67L4782.7 1326.67L4782.7 1325.92z"/>
<path class="l5" d="M4759.2 693.557L4783.08 705.495L4759.2 717.434L4759.2 693.557"/>
<path class="l5" d="M4771.14 836.818L4795.01 836.818L4795.01 860.695L4771.14 860.695L4771.14 836.818z"/>
<path class="l5" d="M4580.12 693.557L4604 693.557L4604 717.434L4580.12 717.434L4580.12 693.557z"/>
<path class="l5" d="M4771.14 550.295L4795.01 550.295L4795.01 574.172L4771.14 574.172L4771.14 550.295z"/>
<path class="l5" d="M4782.7 705.122L4783.45 705.122L4783.45 705.868L4782.7 705.868L4782.7 705.122z"/>
<path class="l5" d="M5785.91 1338.23L5762.03 1326.3L5785.91 1314.36L5785.91 1338.23"/>
<path class="l5" d="M5773.97 1171.1L5797.84 1171.1L5797.84 1194.97L5773.97 1194.97L5773.97 1171.1z"/>
<path class="l5" d="M5582.95 1314.36L5606.83 1314.36L5606.83 1338.23L5582.95 1338.23L5582.95 1314.36z"/>
<path class="l5" d="M5773.97 1457.62L5797.84 1457.62L5797.84 1481.5L5773.97 1481.5L5773.97 1457.62z"/>
<path class="l5" d="M5785.53 1325.92L5786.28 1325.92L5786.28 1326.67L5785.53 1326.67L5785.53 1325.92z"/>
<path class="l5" d="M5762.03 836.818L5785.91 848.757L5762.03 860.695L5762.03 836.818"/>
<path class="l5" d="M5773.97 980.08L5797.84 980.08L5797.84 1003.96L5773.97 1003.96L5773.97 980.08z"/>
<path class="l5" d="M5582.95 836.818L5606.83 836.818L5606.83 860.695L5582.95 860.695L5582.95 836.818z"/>
<path class="l5" d="M5773.97 693.557L5797.84 693.557L5797.84 717.434L5773.97 717.434L5773.97 693.557z"/>
<path class="l5" d="M5785.53 848.384L5786.28 848.384L5786.28 849.13L5785.53 849.13L5785.53 848.384z"/>
<path class="l5" d="M3947.38 693.557L3923.51 705.495L3947.38 717.434L3947.38 693.557"/>
<path class="l5" d="M3911.57 836.818L3935.45 836.818L3935.45 860.695L3911.57 860.695L3911.57 836.818z"/>
<path class="l5" d="M4102.58 693.557L4126.46 693.557L4126.46 717.434L4102.58 717.434L4102.58 693.557z"/>
<path class="l5" d="M3911.57 550.295L3935.45 550.295L3935.45 574.172L3911.57 574.172L3911.57 550.295z"/>
<path class="l5" d="M3923.13 705.122L3923.88 705.122L3923.88 705.868L3923.13 705.868L3923.13 705.122z"/>
<path class="l5" d="M565.815 466.726L580.738 466.726"/>
<path class="l5" d="M515.077 490.603L497.169 466.726L515.077 442.849L547.908 442.849L565.815 466.726L547.908 490.603L515.077 490.603"/>
<path class="l5" d="M574.769 460.757L586.708 460.757L586.708 472.695L574.769 472.695L574.769 460.757z"/>
<path class="l5" d="M565.815 1565.06L580.738 1565.06"/>
<path class="l5" d="M515.077 1588.94L497.169 1565.06L515.077 1541.19L547.908 1541.19L565.815 1565.06L547.908 1588.94L515.077 1588.94"/>
<path class="l5" d="M574.769 1559.1L586.708 1559.1L586.708 1571.03L574.769 1571.03L574.769 1559.1z"/>
<path class="l5" d="M565.815 609.988L580.738 609.988"/>
<path class="l5" d="M515.077 633.865L497.169 609.988L515.077 586.111L547.908 586.111L565.815 609.988L547.908 633.865L515.077 633.865"/>
<path class="l5" d="M574.769 604.018L586.708 604.018L586.708 615.957L574.769 615.957L574.769 604.018z"/>
<path class="l5" d="M556.861 1087.53L580.738 1087.53"/>
<path class="l5" d="M556.861 1087.53L538.954 1063.65L497.169 1063.65L515.077 1087.53L497.169 1111.4L538.954 1111.4L556.861 1087.53"/>
<path class="l5" d="M574.769 1081.56L586.708 1081.56L586.708 1093.5L574.769 1093.5L574.769 1081.56z"/>
<path class="l5" d="M6263.44 1087.53L6305.23 1087.53"/>
<path class="l5" d="M6347.01 1087.53L6329.11 1063.65L6287.32 1063.65L6305.23 1087.53L6287.32 1111.4L6329.11 1111.4L6347.01 1087.53"/>
<path class="l5" d="M6257.48 1081.56L6269.41 1081.56L6269.41 1093.5L6257.48 1093.5L6257.48 1081.56z"/>
<path class="l5" d="M3487.75 1033.8L3499.69 1033.8L3499.69 1045.74L3487.75 1045.74L3487.75 1033.8z"/>
<path class="l5" d="M3487.75 1129.31L3499.69 1129.31L3499.69 1141.25L3487.75 1141.25L3487.75 1129.31z"/>
<path class="l5" d="M3917.54 938.295L3929.48 938.295L3929.48 950.234L3917.54 950.234L3917.54 938.295z"/>
<path class="l5" d="M4777.11 1081.56L4789.05 1081.56L4789.05 1093.5L4777.11 1093.5L4777.11 1081.56z"/>
<path class="l5" d="M1106.03 1338.23L1082.15 1326.3L1106.03 1314.36L1106.03 1338.23"/>
<path class="l5" d="M1094.09 1171.1L1117.97 1171.1L1117.97 1194.97L1094.09 1194.97L1094.09 1171.1z"/>
<path class="l5" d="M903.077 1314.36L926.954 1314.36L926.954 1338.23L903.077 1338.23L903.077 1314.36z"/>
<path class="l5" d="M1094.09 1457.62L1117.97 1457.62L1117.97 1481.5L1094.09 1481.5L1094.09 1457.62z"/>
<path class="l5" d="M1105.66 1325.92L1106.4 1325.92L1106.4 1326.67L1105.66 1326.67L1105.66 1325.92z"/>
<path class="l5" d="M1082.15 836.818L1106.03 848.757L1082.15 860.695L1082.15 836.818"/>
<path class="l5" d="M1094.09 980.08L1117.97 980.08L1117.97 1003.96L1094.09 1003.96L1094.09 980.08z"/>
<path class="l5" d="M903.077 836.818L926.954 836.818L926.954 860.695L903.077 860.695L903.077 836.818z"/>
<path class="l5" d="M1094.09 693.557L1117.97 693.557L1117.97 717.434L1094.09 717.434L1094.09 693.557z"/>
<path class="l5" d="M1105.66 848.384L1106.4 848.384L1106.4 849.13L1105.66 849.13L1105.66 848.384z"/>
<path class="l5" d="M819.508 2066.48L818.015 2067.97L816.523 2069.46L815.031 2070.96L813.538 2072.45L812.046 2073.94L810.554 2075.43L809.061 2076.93L807.569 2078.42L806.077 2079.91L804.584 2081.4L803.092 2082.89L801.6 2084.39L800.108 2085.88L798.615 2087.37L797.123 2088.86L795.631 2090.36L794.138 2091.85L792.646 2093.34L791.154 2094.83L789.661 2096.33L788.169 2097.82L786.677 2099.31L785.184 2100.8L783.692 2102.29L782.2 2103.79L780.708 2105.28L779.215 2106.77L777.723 2108.26L776.231 2109.76L774.738 2111.25L773.246 2112.74L771.754 2114.23L771.754 2114.23L770.308 2115.73L768.956 2117.22L767.696 2118.71L766.531 2120.2L765.458 2121.69L764.479 2123.19L763.593 2124.68L762.8 2126.17L762.1 2127.66L761.494 2129.16L760.981 2130.65L760.561 2132.14L760.235 2133.63L760.002 2135.13L759.862 2136.62L759.815 2138.11L759.862 2139.6L760.002 2141.09L760.235 2142.59L760.561 2144.08L760.981 2145.57L761.494 2147.06L762.1 2148.56L762.8 2150.05L763.593 2151.54L764.479 2153.03L765.458 2154.53L766.531 2156.02L767.696 2157.51L768.956 2159L770.308 2160.49L771.754 2161.99L771.754 2161.99L773.252 2163.49L774.762 2165L776.283 2166.52L777.816 2168.05L779.361 2169.59L780.917 2171.15L782.485 2172.72L784.065 2174.3L785.657 2175.89L787.26 2177.49L788.874 2179.11L790.501 2180.73L792.139 2182.37L793.789 2184.02L795.45 2185.68L797.123 2187.36L798.808 2189.04L800.504 2190.74L802.212 2192.45L803.932 2194.17L805.663 2195.9L807.406 2197.64L809.16 2199.39L810.927 2201.16L812.705 2202.94L814.494 2204.73L816.296 2206.53L818.108 2208.34L819.933 2210.17L821.769 2212L823.617 2213.85L825.477 2215.71L825.477 2215.71L827.33 2217.56L829.161 2219.39L830.968 2221.2L832.752 2222.99L834.512 2224.75L836.249 2226.48L837.963 2228.2L839.654 2229.89L841.321 2231.55L842.965 2233.2L844.585 2234.82L846.183 2236.42L847.756 2237.99L849.307 2239.54L850.834 2241.07L852.338 2242.57L853.819 2244.05L855.276 2245.51L856.71 2246.94L858.121 2248.35L859.508 2249.74L860.872 2251.11L862.213 2252.45L863.531 2253.76L864.825 2255.06L866.096 2256.33L867.343 2257.58L868.567 2258.8L869.768 2260L870.946 2261.18L872.1 2262.33L873.231 2263.46L873.231 2263.46L874.315 2264.57L875.329 2265.63L876.274 2266.66L877.148 2267.66L877.952 2268.62L878.687 2269.55L879.351 2270.44L879.946 2271.3L880.471 2272.12L880.925 2272.91L881.31 2273.66L881.625 2274.38L881.87 2275.06L882.045 2275.71L882.149 2276.32L882.184 2276.89L882.149 2277.44L882.045 2277.94L881.87 2278.42L881.625 2278.85L881.31 2279.26L880.925 2279.62L880.471 2279.96L879.946 2280.25L879.351 2280.51L878.687 2280.74L877.952 2280.93L877.148 2281.09L876.274 2281.21L875.329 2281.3L874.315 2281.35L873.231 2281.37L873.231 2281.37L872.111 2281.37L870.992 2281.37L869.873 2281.37L868.754 2281.37L867.634 2281.37L866.515 2281.37L865.396 2281.37L864.277 2281.37L863.158 2281.37L862.038 2281.37L860.919 2281.37L859.8 2281.37L858.681 2281.37L857.561 2281.37L856.442 2281.37L855.323 2281.37L854.204 2281.37L853.084 2281.37L851.965 2281.37L850.846 2281.37L849.727 2281.37L848.608 2281.37L847.488 2281.37L846.369 2281.37L845.25 2281.37L844.131 2281.37L843.011 2281.37L841.892 2281.37L840.773 2281.37L839.654 2281.37L838.534 2281.37L837.415 2281.37L837.415 2281.37L836.302 2281.37L835.2 2281.37L834.11 2281.37L833.032 2281.37L831.965 2281.37L830.91 2281.37L829.866 2281.37L828.834 2281.37L827.814 2281.37L826.806 2281.37L825.809 2281.37L824.824 2281.37L823.85 2281.37L822.889 2281.37L821.938 2281.37L821 2281.37L820.073 2281.37L819.158 2281.37L818.254 2281.37L817.362 2281.37L816.482 2281.37L815.614 2281.37L814.757 2281.37L813.911 2281.37L813.078 2281.37L812.256 2281.37L811.446 2281.37L810.647 2281.37L809.86 2281.37L809.085 2281.37L808.321 2281.37L807.569 2281.37L807.569 2281.37L806.823 2281.36L806.077 2281.33L805.331 2281.27L804.584 2281.19L803.838 2281.08L803.092 2280.95L802.346 2280.8L801.6 2280.63L800.854 2280.43L800.108 2280.21L799.361 2279.96L798.615 2279.69L797.869 2279.4L797.123 2279.09L796.377 2278.75L795.631 2278.39L794.884 2278L794.138 2277.59L793.392 2277.16L792.646 2276.71L791.9 2276.23L791.154 2275.73L790.408 2275.2L789.661 2274.66L788.915 2274.09L788.169 2273.49L787.423 2272.87L786.677 2272.23L785.931 2271.57L785.184 2270.88L784.438 2270.17L783.692 2269.43L783.692 2269.43L782.946 2268.69L782.2 2267.94L781.454 2267.19L780.708 2266.45L779.961 2265.7L779.215 2264.96L778.469 2264.21L777.723 2263.46L776.977 2262.72L776.231 2261.97L775.484 2261.23L774.738 2260.48L773.992 2259.73L773.246 2258.99L772.5 2258.24L771.754 2257.49L771.008 2256.75L770.261 2256L769.515 2255.26L768.769 2254.51L768.023 2253.76L767.277 2253.02L766.531 2252.27L765.784 2251.53L765.038 2250.78L764.292 2250.03L763.546 2249.29L762.8 2248.54L762.054 2247.79L761.308 2247.05L760.561 2246.3L759.815 2245.56L759.815 2245.56L759.057 2244.8L758.276 2244.02L757.472 2243.21L756.644 2242.39L755.793 2241.53L754.919 2240.66L754.021 2239.76L753.1 2238.84L752.156 2237.9L751.188 2236.93L750.197 2235.94L749.183 2234.92L748.145 2233.89L747.084 2232.83L746 2231.74L744.892 2230.63L743.761 2229.5L742.607 2228.35L741.43 2227.17L740.229 2225.97L739.005 2224.75L737.757 2223.5L736.486 2222.23L735.192 2220.93L733.875 2219.62L732.534 2218.28L731.17 2216.91L729.783 2215.52L728.372 2214.11L726.938 2212.68L725.481 2211.22L724 2209.74L724 2209.74L722.508 2208.3L721.015 2206.94L719.523 2205.68L718.031 2204.52L716.538 2203.45L715.046 2202.47L713.554 2201.58L712.061 2200.79L710.569 2200.09L709.077 2199.48L707.584 2198.97L706.092 2198.55L704.6 2198.22L703.108 2197.99L701.615 2197.85L700.123 2197.8L698.631 2197.85L697.138 2197.99L695.646 2198.22L694.154 2198.55L692.661 2198.97L691.169 2199.48L689.677 2200.09L688.184 2200.79L686.692 2201.58L685.2 2202.47L683.708 2203.45L682.215 2204.52L680.723 2205.68L679.231 2206.94L677.738 2208.3L676.246 2209.74L676.246 2209.74L674.765 2211.22L673.308 2212.68L671.874 2214.11L670.463 2215.52L669.076 2216.91L667.712 2218.28L666.371 2219.62L665.054 2220.93L663.76 2222.23L662.489 2223.5L661.241 2224.75L660.017 2225.97L658.816 2227.17L657.639 2228.35L656.485 2229.5L655.354 2230.63L654.246 2231.74L653.162 2232.83L652.101 2233.89L651.063 2234.92L650.049 2235.94L649.058 2236.93L648.09 2237.9L647.146 2238.84L646.225 2239.76L645.327 2240.66L644.453 2241.53L643.602 2242.39L642.774 2243.21L641.97 2244.02L641.188 2244.8L640.431 2245.56L640.431 2245.56L639.684 2246.3L638.938 2247.05L638.192 2247.79L637.446 2248.54L636.7 2249.29L635.954 2250.03L635.208 2250.78L634.461 2251.53L633.715 2252.27L632.969 2253.02L632.223 2253.76L631.477 2254.51L630.731 2255.26L629.985 2256L629.238 2256.75L628.492 2257.49L627.746 2258.24L627 2258.99L626.254 2259.73L625.508 2260.48L624.761 2261.23L624.015 2261.97L623.269 2262.72L622.523 2263.46L621.777 2264.21L621.031 2264.96L620.285 2265.7L619.538 2266.45L618.792 2267.19L618.046 2267.94L617.3 2268.69L616.554 2269.43L616.554 2269.43L615.808 2270.17L615.061 2270.88L614.315 2271.57L613.569 2272.23L612.823 2272.87L612.077 2273.49L611.331 2274.09L610.585 2274.66L609.838 2275.2L609.092 2275.73L608.346 2276.23L607.6 2276.71L606.854 2277.16L606.108 2277.59L605.361 2278L604.615 2278.39L603.869 2278.75L603.123 2279.09L602.377 2279.4L601.631 2279.69L600.885 2279.96L600.138 2280.21L599.392 2280.43L598.646 2280.63L597.9 2280.8L597.154 2280.95L596.408 2281.08L595.661 2281.19L594.915 2281.27L594.169 2281.33L593.423 2281.36L592.677 2281.37L592.677 2281.37L591.925 2281.37L591.161 2281.37L590.386 2281.37L589.599 2281.37L588.8 2281.37L587.99 2281.37L587.168 2281.37L586.335 2281.37L585.489 2281.37L584.632 2281.37L583.764 2281.37L582.884 2281.37L581.992 2281.37L581.088 2281.37L580.173 2281.37L579.246 2281.37L578.308 2281.37L577.357 2281.37L576.396 2281.37L575.422 2281.37L574.437 2281.37L573.44 2281.37L572.432 2281.37L571.411 2281.37L570.38 2281.37L569.336 2281.37L568.281 2281.37L567.214 2281.37L566.136 2281.37L565.046 2281.37L563.944 2281.37L562.831 2281.37L562.831 2281.37L561.711 2281.37L560.592 2281.37L559.473 2281.37L558.354 2281.37L557.235 2281.37L556.115 2281.37L554.996 2281.37L553.877 2281.37L552.758 2281.37L551.638 2281.37L550.519 2281.37L549.4 2281.37L548.281 2281.37L547.161 2281.37L546.042 2281.37L544.923 2281.37L543.804 2281.37L542.685 2281.37L541.565 2281.37L540.446 2281.37L539.327 2281.37L538.208 2281.37L537.088 2281.37L535.969 2281.37L534.85 2281.37L533.731 2281.37L532.611 2281.37L531.492 2281.37L530.373 2281.37L529.254 2281.37L528.135 2281.37L527.015 2281.37L527.015 2281.37L525.931 2281.35L524.917 2281.3L523.972 2281.21L523.098 2281.09L522.294 2280.93L521.559 2280.74L520.895 2280.51L520.3 2280.25L519.775 2279.96L519.321 2279.62L518.936 2279.26L518.621 2278.85L518.376 2278.42L518.201 2277.94L518.096 2277.44L518.061 2276.89L518.096 2276.32L518.201 2275.71L518.376 2275.06L518.621 2274.38L518.936 2273.66L519.321 2272.91L519.775 2272.12L520.3 2271.3L520.895 2270.44L521.559 2269.55L522.294 2268.62L523.098 2267.66L523.972 2266.66L524.917 2265.63L525.931 2264.57L527.015 2263.46L527.015 2263.46L528.146 2262.33L529.3 2261.18L530.478 2260L531.679 2258.8L532.903 2257.58L534.15 2256.33L535.421 2255.06L536.715 2253.76L538.033 2252.45L539.373 2251.11L540.738 2249.74L542.125 2248.35L543.536 2246.94L544.97 2245.51L546.427 2244.05L547.908 2242.57L549.412 2241.07L550.939 2239.54L552.489 2237.99L554.063 2236.42L555.661 2234.82L557.281 2233.2L558.925 2231.55L560.592 2229.89L562.283 2228.2L563.997 2226.48L565.734 2224.75L567.494 2222.99L569.278 2221.2L571.085 2219.39L572.915 2217.56L574.769 2215.71L574.769 2215.71L576.629 2213.85L578.477 2212L580.313 2210.17L582.137 2208.34L583.95 2206.53L585.752 2204.73L587.541 2202.94L589.319 2201.16L591.085 2199.39L592.84 2197.64L594.583 2195.9L596.314 2194.17L598.034 2192.45L599.742 2190.74L601.438 2189.04L603.123 2187.36L604.796 2185.68L606.457 2184.02L608.107 2182.37L609.745 2180.73L611.371 2179.11L612.986 2177.49L614.589 2175.89L616.181 2174.3L617.76 2172.72L619.328 2171.15L620.885 2169.59L622.43 2168.05L623.963 2166.52L625.484 2165L626.994 2163.49L628.492 2161.99L628.492 2161.99L629.938 2160.49L631.29 2159L632.549 2157.51L633.715 2156.02L634.788 2154.53L635.767 2153.03L636.653 2151.54L637.446 2150.05L638.146 2148.56L638.752 2147.06L639.265 2145.57L639.684 2144.08L640.011 2142.59L640.244 2141.09L640.384 2139.6L640.431 2138.11L640.384 2136.62L640.244 2135.13L640.011 2133.63L639.684 2132.14L639.265 2130.65L638.752 2129.16L638.146 2127.66L637.446 2126.17L636.653 2124.68L635.767 2123.19L634.788 2121.69L633.715 2120.2L632.549 2118.71L631.29 2117.22L629.938 2115.73L628.492 2114.23L628.492 2114.23L626.994 2112.74L625.484 2111.23L623.963 2109.7L622.43 2108.17L620.885 2106.63L619.328 2105.07L617.76 2103.5L616.181 2101.92L614.589 2100.33L612.986 2098.73L611.371 2097.11L609.745 2095.49L608.107 2093.85L606.457 2092.2L604.796 2090.54L603.123 2088.86L601.438 2087.18L599.742 2085.48L598.034 2083.78L596.314 2082.06L594.583 2080.32L592.84 2078.58L591.085 2076.83L589.319 2075.06L587.541 2073.28L585.752 2071.49L583.95 2069.69L582.137 2067.88L580.313 2066.05L578.477 2064.22L576.629 2062.37L574.769 2060.51L574.769 2060.51L572.915 2058.66L571.085 2056.83L569.278 2055.02L567.494 2053.24L565.734 2051.47L563.997 2049.74L562.283 2048.02L560.592 2046.33L558.925 2044.67L557.281 2043.02L555.661 2041.4L554.063 2039.8L552.489 2038.23L550.939 2036.68L549.412 2035.15L547.908 2033.65L546.427 2032.17L544.97 2030.71L543.536 2029.28L542.125 2027.87L540.738 2026.48L539.373 2025.11L538.033 2023.77L536.715 2022.46L535.421 2021.16L534.15 2019.89L532.903 2018.64L531.679 2017.42L530.478 2016.22L529.3 2015.04L528.146 2013.89L527.015 2012.76L527.015 2012.76L525.931 2011.65L524.917 2010.59L523.972 2009.56L523.098 2008.56L522.294 2007.6L521.559 2006.67L520.895 2005.78L520.3 2004.92L519.775 2004.1L519.321 2003.31L518.936 2002.56L518.621 2001.84L518.376 2001.16L518.201 2000.51L518.096 1999.9L518.061 1999.33L518.096 1998.78L518.201 1998.28L518.376 1997.8L518.621 1997.37L518.936 1996.96L519.321 1996.6L519.775 1996.27L520.3 1995.97L520.895 1995.71L521.559 1995.48L522.294 1995.29L523.098 1995.13L523.972 1995.01L524.917 1994.92L525.931 1994.87L527.015 1994.85L527.015 1994.85L528.135 1994.85L529.254 1994.85L530.373 1994.85L531.492 1994.85L532.611 1994.85L533.731 1994.85L534.85 1994.85L535.969 1994.85L537.088 1994.85L538.208 1994.85L539.327 1994.85L540.446 1994.85L541.565 1994.85L542.685 1994.85L543.804 1994.85L544.923 1994.85L546.042 1994.85L547.161 1994.85L548.281 1994.85L549.4 1994.85L550.519 1994.85L551.638 1994.85L552.758 1994.85L553.877 1994.85L554.996 1994.85L556.115 1994.85L557.235 1994.85L558.354 1994.85L559.473 1994.85L560.592 1994.85L561.711 1994.85L562.831 1994.85L562.831 1994.85L563.944 1994.85L565.046 1994.85L566.136 1994.85L567.214 1994.85L568.281 1994.85L569.336 1994.85L570.38 1994.85L571.411 1994.85L572.432 1994.85L573.44 1994.85L574.437 1994.85L575.422 1994.85L576.396 1994.85L577.357 1994.85L578.308 1994.85L579.246 1994.85L580.173 1994.85L581.088 1994.85L581.992 1994.85L582.884 1994.85L583.764 1994.85L584.632 1994.85L585.489 1994.85L586.335 1994.85L587.168 1994.85L587.99 1994.85L588.8 1994.85L589.599 1994.85L590.386 1994.85L591.161 1994.85L591.925 1994.85L592.677 1994.85L592.677 1994.85L593.423 1994.86L594.169 1994.9L594.915 1994.95L595.661 1995.04L596.408 1995.14L597.154 1995.27L597.9 1995.42L598.646 1995.59L599.392 1995.79L600.138 1996.01L600.885 1996.26L601.631 1996.53L602.377 1996.82L603.123 1997.13L603.869 1997.47L604.615 1997.83L605.361 1998.22L606.108 1998.63L606.854 1999.06L607.6 1999.51L608.346 1999.99L609.092 2000.49L609.838 2001.02L610.585 2001.56L611.331 2002.14L612.077 2002.73L612.823 2003.35L613.569 2003.99L614.315 2004.65L615.061 2005.34L615.808 2006.05L616.554 2006.79L616.554 2006.79L617.3 2007.53L618.046 2008.28L618.792 2009.03L619.538 2009.77L620.285 2010.52L621.031 2011.26L621.777 2012.01L622.523 2012.76L623.269 2013.5L624.015 2014.25L624.761 2014.99L625.508 2015.74L626.254 2016.49L627 2017.23L627.746 2017.98L628.492 2018.73L629.238 2019.47L629.985 2020.22L630.731 2020.96L631.477 2021.71L632.223 2022.46L632.969 2023.2L633.715 2023.95L634.461 2024.69L635.208 2025.44L635.954 2026.19L636.7 2026.93L637.446 2027.68L638.192 2028.43L638.938 2029.17L639.684 2029.92L640.431 2030.66L640.431 2030.66L641.188 2031.42L641.97 2032.2L642.774 2033.01L643.602 2033.84L644.453 2034.69L645.327 2035.56L646.225 2036.46L647.146 2037.38L648.09 2038.32L649.058 2039.29L650.049 2040.28L651.063 2041.3L652.101 2042.33L653.162 2043.4L654.246 2044.48L655.354 2045.59L656.485 2046.72L657.639 2047.87L658.816 2049.05L660.017 2050.25L661.241 2051.47L662.489 2052.72L663.76 2053.99L665.054 2055.29L666.371 2056.6L667.712 2057.95L669.076 2059.31L670.463 2060.7L671.874 2062.11L673.308 2063.54L674.765 2065L676.246 2066.48L676.246 2066.48L677.738 2067.93L679.231 2069.28L680.723 2070.54L682.215 2071.7L683.708 2072.78L685.2 2073.75L686.692 2074.64L688.184 2075.43L689.677 2076.13L691.169 2076.74L692.661 2077.25L694.154 2077.67L695.646 2078L697.138 2078.23L698.631 2078.37L700.123 2078.42L701.615 2078.37L703.108 2078.23L704.6 2078L706.092 2077.67L707.584 2077.25L709.077 2076.74L710.569 2076.13L712.061 2075.43L713.554 2074.64L715.046 2073.75L716.538 2072.78L718.031 2071.7L719.523 2070.54L721.015 2069.28L722.508 2067.93L724 2066.48L724 2066.48L725.481 2065L726.938 2063.54L728.372 2062.11L729.783 2060.7L731.17 2059.31L732.534 2057.95L733.875 2056.6L735.192 2055.29L736.486 2053.99L737.757 2052.72L739.005 2051.47L740.229 2050.25L741.43 2049.05L742.607 2047.87L743.761 2046.72L744.892 2045.59L746 2044.48L747.084 2043.4L748.145 2042.33L749.183 2041.3L750.197 2040.28L751.188 2039.29L752.156 2038.32L753.1 2037.38L754.021 2036.46L754.919 2035.56L755.793 2034.69L756.644 2033.84L757.472 2033.01L758.276 2032.2L759.057 2031.42L759.815 2030.66L759.815 2030.66L760.561 2029.92L761.308 2029.17L762.054 2028.43L762.8 2027.68L763.546 2026.93L764.292 2026.19L765.038 2025.44L765.784 2024.69L766.531 2023.95L767.277 2023.2L768.023 2022.46L768.769 2021.71L769.515 2020.96L770.261 2020.22L771.008 2019.47L771.754 2018.73L772.5 2017.98L773.246 2017.23L773.992 2016.49L774.738 2015.74L775.484 2014.99L776.231 2014.25L776.977 2013.5L777.723 2012.76L778.469 2012.01L779.215 2011.26L779.961 2010.52L780.708 2009.77L781.454 2009.03L782.2 2008.28L782.946 2007.53L783.692 2006.79L783.692 2006.79L784.438 2006.05L785.184 2005.34L785.931 2004.65L786.677 2003.99L787.423 2003.35L788.169 2002.73L788.915 2002.14L789.661 2001.56L790.408 2001.02L791.154 2000.49L791.9 1999.99L792.646 1999.51L793.392 1999.06L794.138 1998.63L794.884 1998.22L795.631 1997.83L796.377 1997.47L797.123 1997.13L797.869 1996.82L798.615 1996.53L799.361 1996.26L800.108 1996.01L800.854 1995.79L801.6 1995.59L802.346 1995.42L803.092 1995.27L803.838 1995.14L804.584 1995.04L805.331 1994.95L806.077 1994.9L806.823 1994.86L807.569 1994.85L807.569 1994.85L808.321 1994.85L809.085 1994.85L809.86 1994.85L810.647 1994.85L811.446 1994.85L812.256 1994.85L813.078 1994.85L813.911 1994.85L814.757 1994.85L815.614 1994.85L816.482 1994.85L817.362 1994.85L818.254 1994.85L819.158 1994.85L820.073 1994.85L821 1994.85L821.938 1994.85L822.889 1994.85L823.85 1994.85L824.824 1994.85L825.809 1994.85L826.806 1994.85L827.814 1994.85L828.834 1994.85L829.866 1994.85L830.91 1994.85L831.965 1994.85L833.032 1994.85L834.11 1994.85L835.2 1994.85L836.302 1994.85L837.415 1994.85L837.415 1994.85L838.534 1994.85L839.654 1994.85L840.773 1994.85L841.892 1994.85L843.011 1994.85L844.131 1994.85L845.25 1994.85L846.369 1994.85L847.488 1994.85L848.608 1994.85L849.727 1994.85L850.846 1994.85L851.965 1994.85L853.084 1994.85L854.204 1994.85L855.323 1994.85L856.442 1994.85L857.561 1994.85L858.681 1994.85L859.8 1994.85L860.919 1994.85L862.038 1994.85L863.158 1994.85L864.277 1994.85L865.396 1994.85L866.515 1994.85L867.634 1994.85L868.754 1994.85L869.873 1994.85L870.992 1994.85L872.111 1994.85L873.231 1994.85L873.231 1994.85L874.315 1994.87L875.329 1994.92L876.274 1995.01L877.148 1995.13L877.952 1995.29L878.687 1995.48L879.351 1995.71L879.946 1995.97L880.471 1996.27L880.925 1996.6L881.31 1996.96L881.625 1997.37L881.87 1997.8L882.045 1998.28L882.149 1998.78L882.184 1999.33L882.149 1999.9L882.045 2000.51L881.87 2001.16L881.625 2001.84L881.31 2002.56L880.925 2003.31L880.471 2004.1L879.946 2004.92L879.351 2005.78L878.687 2006.67L877.952 2007.6L877.148 2008.56L876.274 2009.56L875.329 2010.59L874.315 2011.65L873.231 2012.76L873.231 2012.76L872.094 2013.89L870.922 2015.06L869.716 2016.27L868.474 2017.51L867.197 2018.79L865.886 2020.1L864.539 2021.45L863.158 2022.83L861.741 2024.25L860.289 2025.7L858.803 2027.18L857.282 2028.71L855.725 2030.26L854.134 2031.85L852.507 2033.48L850.846 2035.14L849.15 2036.84L847.418 2038.57L845.652 2040.34L843.851 2042.14L842.015 2043.97L840.143 2045.84L838.237 2047.75L836.296 2049.69L834.32 2051.67L832.309 2053.68L830.263 2055.72L828.182 2057.81L826.066 2059.92L823.915 2062.07L821.729 2064.26L819.508 2066.48"/>
<path class="l6" d="M1941.72 2138.11L5738.15 2138.11"/>
<path class="l6" d="M103.2 2138.11L413.6 2138.11"/>
<text fill="#000000"  xml:space="preserve" font-size="49.664" transform="translate(1723.46, 1228.13)" >M1</text>
<text fill="#000000"  xml:space="preserve" font-size="37.248" transform="translate(1697.83, 1312.36)" >G</text>
<text fill="#000000"  xml:space="preserve" font-size="49.664" transform="translate(1917.85, 1463.66)" >sg13_lv_nmos</text>
<text fill="#000000"  xml:space="preserve" font-size="49.664" transform="translate(1923.81, 1401.24)" >m=1</text>
<text fill="#000000"  xml:space="preserve" font-size="49.664" transform="translate(1923.81, 1359.45)" >ng=1</text>
<text fill="#000000"  xml:space="preserve" font-size="49.664" transform="translate(1923.81, 1299.76)" >l=0.13u</text>
<text fill="#000000"  xml:space="preserve" font-size="49.664" transform="translate(1923.81, 1246.04)" >w=0.15u</text>
<text fill="#000000"  xml:space="preserve" font-size="37.248" transform="translate(1882.03, 1443.69)" >S</text>
<text fill="#000000"  xml:space="preserve" font-size="37.248" transform="translate(1882.03, 1233.82)" >D</text>
<text fill="#000000"  xml:space="preserve" font-size="37.248" transform="translate(1870.09, 1312.36)" >B</text>
<text fill="#000000"  xml:space="preserve" font-size="49.664" transform="translate(1723.46, 750.59)" >M2</text>
<text fill="#000000"  xml:space="preserve" font-size="37.248" transform="translate(1697.83, 834.824)" >G</text>
<text fill="#000000"  xml:space="preserve" font-size="49.664" transform="translate(1917.85, 986.118)" >sg13_lv_pmos</text>
<text fill="#000000"  xml:space="preserve" font-size="49.664" transform="translate(1923.81, 923.698)" >m=1</text>
<text fill="#000000"  xml:space="preserve" font-size="49.664" transform="translate(1923.81, 881.913)" >ng=1</text>
<text fill="#000000"  xml:space="preserve" font-size="49.664" transform="translate(1923.81, 822.221)" >l=0.13u</text>
<text fill="#000000"  xml:space="preserve" font-size="49.664" transform="translate(1923.81, 768.498)" >w=0.3u</text>
<text fill="#000000"  xml:space="preserve" font-size="37.248" transform="translate(1882.03, 966.147)" >D</text>
<text fill="#000000"  xml:space="preserve" font-size="37.248" transform="translate(1882.03, 756.285)" >S</text>
<text fill="#000000"  xml:space="preserve" font-size="37.248" transform="translate(1870.09, 834.824)" >B</text>
<text fill="#000000"  xml:space="preserve" font-size="49.664" transform="translate(2630.78, 1228.13)" >M3</text>
<text fill="#000000"  xml:space="preserve" font-size="37.248" transform="translate(2605.15, 1312.36)" >G</text>
<text fill="#000000"  xml:space="preserve" font-size="49.664" transform="translate(2825.17, 1463.66)" >sg13_lv_nmos</text>
<text fill="#000000"  xml:space="preserve" font-size="49.664" transform="translate(2831.14, 1401.24)" >m=1</text>
<text fill="#000000"  xml:space="preserve" font-size="49.664" transform="translate(2831.14, 1359.45)" >ng=1</text>
<text fill="#000000"  xml:space="preserve" font-size="49.664" transform="translate(2831.14, 1299.76)" >l=0.13u</text>
<text fill="#000000"  xml:space="preserve" font-size="49.664" transform="translate(2831.14, 1246.04)" >w=0.15u</text>
<text fill="#000000"  xml:space="preserve" font-size="37.248" transform="translate(2789.35, 1443.69)" >S</text>
<text fill="#000000"  xml:space="preserve" font-size="37.248" transform="translate(2789.35, 1233.82)" >D</text>
<text fill="#000000"  xml:space="preserve" font-size="37.248" transform="translate(2777.41, 1312.36)" >B</text>
<text fill="#000000"  xml:space="preserve" font-size="49.664" transform="translate(2630.78, 750.59)" >M4</text>
<text fill="#000000"  xml:space="preserve" font-size="37.248" transform="translate(2605.15, 834.824)" >G</text>
<text fill="#000000"  xml:space="preserve" font-size="49.664" transform="translate(2825.17, 986.118)" >sg13_lv_pmos</text>
<text fill="#000000"  xml:space="preserve" font-size="49.664" transform="translate(2831.14, 923.698)" >m=1</text>
<text fill="#000000"  xml:space="preserve" font-size="49.664" transform="translate(2831.14, 881.913)" >ng=1</text>
<text fill="#000000"  xml:space="preserve" font-size="49.664" transform="translate(2831.14, 822.221)" >l=0.13u</text>
<text fill="#000000"  xml:space="preserve" font-size="49.664" transform="translate(2831.14, 768.498)" >w=0.3u</text>
<text fill="#000000"  xml:space="preserve" font-size="37.248" transform="translate(2789.35, 966.147)" >D</text>
<text fill="#000000"  xml:space="preserve" font-size="37.248" transform="translate(2789.35, 756.285)" >S</text>
<text fill="#000000"  xml:space="preserve" font-size="37.248" transform="translate(2777.41, 834.824)" >B</text>
<text fill="#000000"  xml:space="preserve" font-size="49.664" transform="translate(3995.14, 1228.13)" >M5</text>
<text fill="#000000"  xml:space="preserve" font-size="37.248" transform="translate(4066.77, 1312.36)" >G</text>
<text fill="#000000"  xml:space="preserve" font-size="49.664" transform="translate(3508.75, 1463.66)" >sg13_hv_nmos</text>
<text fill="#000000"  xml:space="preserve" font-size="37.248" transform="translate(3887.57, 1443.69)" >S</text>
<text fill="#000000"  xml:space="preserve" font-size="37.248" transform="translate(3882.57, 1233.82)" >D</text>
<text fill="#000000"  xml:space="preserve" font-size="37.248" transform="translate(3897.51, 1312.36)" >B</text>
<text fill="#000000"  xml:space="preserve" font-size="49.664" transform="translate(3747.78, 1401.24)" >m=1</text>
<text fill="#000000"  xml:space="preserve" font-size="49.664" transform="translate(3732.78, 1359.45)" >ng=1</text>
<text fill="#000000"  xml:space="preserve" font-size="49.664" transform="translate(3670.78, 1299.76)" >l=0.45u</text>
<text fill="#000000"  xml:space="preserve" font-size="49.664" transform="translate(3723.78, 1246.04)" >w=1u</text>
<text fill="#000000"  xml:space="preserve" font-size="49.664" transform="translate(4636.45, 1228.13)" >M6</text>
<text fill="#000000"  xml:space="preserve" font-size="37.248" transform="translate(4610.81, 1312.36)" >G</text>
<text fill="#000000"  xml:space="preserve" font-size="49.664" transform="translate(4830.83, 1463.66)" >sg13_hv_nmos</text>
<text fill="#000000"  xml:space="preserve" font-size="37.248" transform="translate(4795.01, 1443.69)" >S</text>
<text fill="#000000"  xml:space="preserve" font-size="37.248" transform="translate(4795.01, 1233.82)" >D</text>
<text fill="#000000"  xml:space="preserve" font-size="37.248" transform="translate(4783.08, 1312.36)" >B</text>
<text fill="#000000"  xml:space="preserve" font-size="49.664" transform="translate(4836.8, 1401.24)" >m=1</text>
<text fill="#000000"  xml:space="preserve" font-size="49.664" transform="translate(4836.8, 1359.45)" >ng=1</text>
<text fill="#000000"  xml:space="preserve" font-size="49.664" transform="translate(4836.8, 1299.76)" >l=0.45u</text>
<text fill="#000000"  xml:space="preserve" font-size="49.664" transform="translate(4836.8, 1246.04)" >w=1u</text>
<text fill="#000000"  xml:space="preserve" font-size="49.664" transform="translate(4636.45, 607.329)" >M7</text>
<text fill="#000000"  xml:space="preserve" font-size="37.248" transform="translate(4610.81, 691.563)" >G</text>
<text fill="#000000"  xml:space="preserve" font-size="49.664" transform="translate(4830.83, 842.856)" >sg13_hv_pmos</text>
<text fill="#000000"  xml:space="preserve" font-size="37.248" transform="translate(4795.01, 822.886)" >D</text>
<text fill="#000000"  xml:space="preserve" font-size="37.248" transform="translate(4795.01, 613.024)" >S</text>
<text fill="#000000"  xml:space="preserve" font-size="37.248" transform="translate(4783.08, 691.563)" >B</text>
<text fill="#000000"  xml:space="preserve" font-size="49.664" transform="translate(4836.8, 780.436)" >m=1</text>
<text fill="#000000"  xml:space="preserve" font-size="49.664" transform="translate(4836.8, 738.652)" >ng=1</text>
<text fill="#000000"  xml:space="preserve" font-size="49.664" transform="translate(4836.8, 678.959)" >l=0.45u</text>
<text fill="#000000"  xml:space="preserve" font-size="49.664" transform="translate(4836.8, 625.236)" >w=0.3u</text>
<text fill="#000000"  xml:space="preserve" font-size="49.664" transform="translate(5639.28, 1228.13)" >M9</text>
<text fill="#000000"  xml:space="preserve" font-size="37.248" transform="translate(5613.64, 1312.36)" >G</text>
<text fill="#000000"  xml:space="preserve" font-size="49.664" transform="translate(5833.66, 1463.66)" >sg13_hv_nmos</text>
<text fill="#000000"  xml:space="preserve" font-size="37.248" transform="translate(5797.84, 1443.69)" >S</text>
<text fill="#000000"  xml:space="preserve" font-size="37.248" transform="translate(5797.84, 1233.82)" >D</text>
<text fill="#000000"  xml:space="preserve" font-size="37.248" transform="translate(5785.91, 1312.36)" >B</text>
<text fill="#000000"  xml:space="preserve" font-size="49.664" transform="translate(5839.63, 1401.24)" >m=4</text>
<text fill="#000000"  xml:space="preserve" font-size="49.664" transform="translate(5839.63, 1359.45)" >ng=1</text>
<text fill="#000000"  xml:space="preserve" font-size="49.664" transform="translate(5839.63, 1299.76)" >l=0.45u</text>
<text fill="#000000"  xml:space="preserve" font-size="49.664" transform="translate(5839.63, 1246.04)" >w=0.3u</text>
<text fill="#000000"  xml:space="preserve" font-size="49.664" transform="translate(5607.28, 750.59)" >M10</text>
<text fill="#000000"  xml:space="preserve" font-size="37.248" transform="translate(5613.64, 834.824)" >G</text>
<text fill="#000000"  xml:space="preserve" font-size="49.664" transform="translate(5833.66, 986.118)" >sg13_hv_pmos</text>
<text fill="#000000"  xml:space="preserve" font-size="37.248" transform="translate(5797.84, 966.147)" >D</text>
<text fill="#000000"  xml:space="preserve" font-size="37.248" transform="translate(5797.84, 756.285)" >S</text>
<text fill="#000000"  xml:space="preserve" font-size="37.248" transform="translate(5785.91, 834.824)" >B</text>
<text fill="#000000"  xml:space="preserve" font-size="49.664" transform="translate(5839.63, 923.698)" >m=4</text>
<text fill="#000000"  xml:space="preserve" font-size="49.664" transform="translate(5839.63, 881.913)" >ng=1</text>
<text fill="#000000"  xml:space="preserve" font-size="49.664" transform="translate(5839.63, 822.221)" >l=0.45u</text>
<text fill="#000000"  xml:space="preserve" font-size="49.664" transform="translate(5839.63, 768.498)" >w=0.6u</text>
<text fill="#000000"  xml:space="preserve" font-size="49.664" transform="translate(3995.14, 607.329)" >M8</text>
<text fill="#000000"  xml:space="preserve" font-size="37.248" transform="translate(4066.77, 691.563)" >G</text>
<text fill="#000000"  xml:space="preserve" font-size="49.664" transform="translate(3507.75, 842.856)" >sg13_hv_pmos</text>
<text fill="#000000"  xml:space="preserve" font-size="37.248" transform="translate(3882.57, 822.886)" >D</text>
<text fill="#000000"  xml:space="preserve" font-size="37.248" transform="translate(3887.57, 613.024)" >S</text>
<text fill="#000000"  xml:space="preserve" font-size="37.248" transform="translate(3897.51, 691.563)" >B</text>
<text fill="#000000"  xml:space="preserve" font-size="49.664" transform="translate(3747.78, 780.436)" >m=1</text>
<text fill="#000000"  xml:space="preserve" font-size="49.664" transform="translate(3732.78, 738.652)" >ng=1</text>
<text fill="#000000"  xml:space="preserve" font-size="49.664" transform="translate(3670.78, 678.959)" >l=0.45u</text>
<text fill="#000000"  xml:space="preserve" font-size="49.664" transform="translate(3675.78, 625.236)" >w=0.3u</text>
<text fill="#000000"  xml:space="preserve" font-size="81.9456" transform="translate(152.977, 496.363)" >PLAVDD</text>
<text fill="#000000"  xml:space="preserve" font-size="49.664" transform="translate(589.692, 530.475)" >3.3</text>
<text fill="#000000"  xml:space="preserve" font-size="81.9456" transform="translate(230.977, 1594.7)" >PLVSS</text>
<text fill="#000000"  xml:space="preserve" font-size="49.664" transform="translate(589.692, 1628.81)" >0.0</text>
<text fill="#000000"  xml:space="preserve" font-size="81.9456" transform="translate(145.977, 639.625)" >PLDVDD</text>
<text fill="#000000"  xml:space="preserve" font-size="49.664" transform="translate(589.692, 673.736)" >1.2</text>
<text fill="#000000"  xml:space="preserve" font-size="81.9456" transform="translate(360.2, 1120.15)" >LIN</text>
<text fill="#000000"  xml:space="preserve" font-size="49.664" transform="translate(589.692, 1151.27)" >1.2</text>
<text fill="#000000"  xml:space="preserve" font-size="81.9456" transform="translate(6358.95, 1120.15)" >nLOUT</text>
<text fill="#000000"  xml:space="preserve" font-size="49.664" transform="translate(6046.49, 1151.27)" >797.59p</text>
<text fill="#000000"  xml:space="preserve" font-size="67.0464" transform="translate(3179.78, 1017.78)" >n_lin_buf</text>
<text fill="#000000"  xml:space="preserve" font-size="49.664" transform="translate(3502.68, 1104.37)" >1.2</text>
<text fill="#000000"  xml:space="preserve" font-size="67.0464" transform="translate(3256.78, 1113.29)" >lin_buf</text>
<text fill="#000000"  xml:space="preserve" font-size="49.664" transform="translate(3502.68, 1199.87)" >44.039n</text>
<text fill="#000000"  xml:space="preserve" font-size="67.0464" transform="translate(3681.57, 922.271)" >q_unbf</text>
<text fill="#000000"  xml:space="preserve" font-size="49.664" transform="translate(3932.46, 1008.86)" >591.45p</text>
<text fill="#000000"  xml:space="preserve" font-size="67.0464" transform="translate(4464.14, 1065.53)" >n_q_unbf</text>
<text fill="#000000"  xml:space="preserve" font-size="49.664" transform="translate(4792.03, 1152.12)" >3.3</text>
<text fill="#000000"  xml:space="preserve" font-size="49.664" style="font-family:Monospace;" transform="translate(6335.08, 440.19)" >ids   = 257.87f</text>
<text fill="#000000"  xml:space="preserve" font-size="49.664" style="font-family:Monospace;" transform="translate(6335.08, 497.155)" >gm    = 5.2982p</text>
<text fill="#000000"  xml:space="preserve" font-size="49.664" style="font-family:Monospace;" transform="translate(6335.08, 554.119)" >gds   = 1.1727p</text>
<text fill="#000000"  xml:space="preserve" font-size="49.664" style="font-family:Monospace;" transform="translate(6335.08, 611.084)" >vth   = 0.58388</text>
<text fill="#000000"  xml:space="preserve" font-size="49.664" style="font-family:Monospace;" transform="translate(6335.08, 668.049)" >vgs   = 1.8989n</text>
<text fill="#000000"  xml:space="preserve" font-size="49.664" style="font-family:Monospace;" transform="translate(6335.08, 725.013)" >vdss  = 0.10118</text>
<text fill="#000000"  xml:space="preserve" font-size="49.664" style="font-family:Monospace;" transform="translate(6335.08, 781.978)" >vds   = 3.3</text>
<text fill="#000000"  xml:space="preserve" font-size="49.664" style="font-family:Monospace;" transform="translate(6335.08, 838.942)" >cgg   = 2.5803f</text>
<text fill="#000000"  xml:space="preserve" font-size="49.664" style="font-family:Monospace;" transform="translate(6335.08, 895.907)" >ft    = 326.8</text>
<text fill="#000000"  xml:space="preserve" font-size="49.664" style="font-family:Monospace;" transform="translate(6335.08, 952.872)" >gm/id = 20.546</text>
<text fill="#000000"  xml:space="preserve" font-size="49.664" transform="translate(6311.2, 359.349)" >M10</text>
<text fill="#000000"  xml:space="preserve" font-size="49.664" style="font-family:Monospace;" transform="translate(6335.08, 1252.01)" >ids   = 675.74f</text>
<text fill="#000000"  xml:space="preserve" font-size="49.664" style="font-family:Monospace;" transform="translate(6335.08, 1308.97)" >gm    = 117.27f</text>
<text fill="#000000"  xml:space="preserve" font-size="49.664" style="font-family:Monospace;" transform="translate(6335.08, 1365.93)" >gds   = 847.22u</text>
<text fill="#000000"  xml:space="preserve" font-size="49.664" style="font-family:Monospace;" transform="translate(6335.08, 1422.9)" >vth   = 0.66097</text>
<text fill="#000000"  xml:space="preserve" font-size="49.664" style="font-family:Monospace;" transform="translate(6335.08, 1479.86)" >vgs   = 3.3</text>
<text fill="#000000"  xml:space="preserve" font-size="49.664" style="font-family:Monospace;" transform="translate(6335.08, 1536.83)" >vdss  = 1.4293</text>
<text fill="#000000"  xml:space="preserve" font-size="49.664" style="font-family:Monospace;" transform="translate(6335.08, 1593.79)" >vds   = 797.59p</text>
<text fill="#000000"  xml:space="preserve" font-size="49.664" style="font-family:Monospace;" transform="translate(6335.08, 1650.76)" >cgg   = 2.8365f</text>
<text fill="#000000"  xml:space="preserve" font-size="49.664" style="font-family:Monospace;" transform="translate(6335.08, 1707.72)" >ft    = 6.58</text>
<text fill="#000000"  xml:space="preserve" font-size="49.664" style="font-family:Monospace;" transform="translate(6335.08, 1764.69)" >gm/id = 0.17354</text>
<text fill="#000000"  xml:space="preserve" font-size="49.664" transform="translate(6311.2, 1171.16)" >M9</text>
<text fill="#000000"  xml:space="preserve" font-size="49.664" transform="translate(927.4, 1228.13)" >M11</text>
<text fill="#000000"  xml:space="preserve" font-size="37.248" transform="translate(933.769, 1312.36)" >G</text>
<text fill="#000000"  xml:space="preserve" font-size="49.664" transform="translate(1153.78, 1463.66)" >sg13_lv_nmos</text>
<text fill="#000000"  xml:space="preserve" font-size="49.664" transform="translate(1159.75, 1401.24)" >m=1</text>
<text fill="#000000"  xml:space="preserve" font-size="49.664" transform="translate(1159.75, 1359.45)" >ng=1</text>
<text fill="#000000"  xml:space="preserve" font-size="49.664" transform="translate(1159.75, 1299.76)" >l=0.13u</text>
<text fill="#000000"  xml:space="preserve" font-size="49.664" transform="translate(1159.75, 1246.04)" >w=0.15u</text>
<text fill="#000000"  xml:space="preserve" font-size="37.248" transform="translate(1117.97, 1443.69)" >S</text>
<text fill="#000000"  xml:space="preserve" font-size="37.248" transform="translate(1117.97, 1233.82)" >D</text>
<text fill="#000000"  xml:space="preserve" font-size="37.248" transform="translate(1106.03, 1312.36)" >B</text>
<text fill="#000000"  xml:space="preserve" font-size="49.664" transform="translate(927.4, 750.59)" >M12</text>
<text fill="#000000"  xml:space="preserve" font-size="37.248" transform="translate(933.769, 834.824)" >G</text>
<text fill="#000000"  xml:space="preserve" font-size="49.664" transform="translate(1153.78, 986.118)" >sg13_lv_pmos</text>
<text fill="#000000"  xml:space="preserve" font-size="49.664" transform="translate(1159.75, 923.698)" >m=1</text>
<text fill="#000000"  xml:space="preserve" font-size="49.664" transform="translate(1159.75, 881.913)" >ng=1</text>
<text fill="#000000"  xml:space="preserve" font-size="49.664" transform="translate(1159.75, 822.221)" >l=0.13u</text>
<text fill="#000000"  xml:space="preserve" font-size="49.664" transform="translate(1159.75, 768.498)" >w=0.3u</text>
<text fill="#000000"  xml:space="preserve" font-size="37.248" transform="translate(1117.97, 966.147)" >D</text>
<text fill="#000000"  xml:space="preserve" font-size="37.248" transform="translate(1117.97, 756.285)" >S</text>
<text fill="#000000"  xml:space="preserve" font-size="37.248" transform="translate(1106.03, 834.824)" >B</text>
<text fill="#000000"  xml:space="preserve" font-size="99.328" transform="translate(1989.48, 2252.18)" >x2.         inverting_digital_level_translator.sch</text>
<text fill="#000000"  xml:space="preserve" font-size="99.328" transform="translate(1989.48, 2108.92)" >Pascal Gesell</text>
<text fill="#000000"  xml:space="preserve" font-size="99.328" transform="translate(4654.15, 2108.92)" >2026-03-23  10:50:14</text>
<text fill="#000000"  xml:space="preserve" font-size="248.32" transform="translate(891.138, 2244.2)" >SCHEM</text>
<path class="l1" d="M1870.09 1087.53L1870.09 1183.03"/>
<path class="l1" d="M1870.09 609.988L1870.09 705.495"/>
<path class="l1" d="M1870.09 609.988L1917.85 609.988"/>
<path class="l1" d="M1917.85 609.988L1917.85 848.757"/>
<path class="l1" d="M1870.09 848.757L1917.85 848.757"/>
<path class="l1" d="M1870.09 1326.3L1917.85 1326.3"/>
<path class="l1" d="M1917.85 1326.3L1917.85 1565.06"/>
<path class="l1" d="M1870.09 1565.06L1917.85 1565.06"/>
<path class="l1" d="M1870.09 1469.56L1870.09 1565.06"/>
<path class="l1" d="M1631.32 1326.3L1679.08 1326.3"/>
<path class="l1" d="M1631.32 1087.53L1631.32 1326.3"/>
<path class="l1" d="M1631.32 848.757L1679.08 848.757"/>
<path class="l1" d="M2777.41 1135.28L2777.41 1183.03"/>
<path class="l1" d="M2777.41 992.018L2777.41 1135.28"/>
<path class="l1" d="M2777.41 609.988L2777.41 705.495"/>
<path class="l1" d="M2777.41 609.988L2825.17 609.988"/>
<path class="l1" d="M2825.17 609.988L2825.17 848.757"/>
<path class="l1" d="M2777.41 848.757L2825.17 848.757"/>
<path class="l1" d="M2777.41 1326.3L2825.17 1326.3"/>
<path class="l1" d="M2825.17 1326.3L2825.17 1565.06"/>
<path class="l1" d="M2777.41 1565.06L2825.17 1565.06"/>
<path class="l1" d="M2777.41 1469.56L2777.41 1565.06"/>
<path class="l1" d="M2538.65 1326.3L2586.4 1326.3"/>
<path class="l1" d="M2538.65 1087.53L2538.65 1326.3"/>
<path class="l1" d="M2538.65 848.757L2586.4 848.757"/>
<path class="l1" d="M2538.65 1039.77L2538.65 1087.53"/>
<path class="l1" d="M1870.09 1087.53L2538.65 1087.53"/>
<path class="l1" d="M1870.09 992.018L1870.09 1087.53"/>
<path class="l1" d="M1917.85 1565.06L2777.41 1565.06"/>
<path class="l1" d="M1917.85 609.988L2777.41 609.988"/>
<path class="l1" d="M4830.83 1565.06L5785.91 1565.06"/>
<path class="l1" d="M5785.91 992.018L5785.91 1087.53"/>
<path class="l1" d="M5785.91 1087.53L6263.44 1087.53"/>
<path class="l1" d="M5785.91 1087.53L5785.91 1183.03"/>
<path class="l1" d="M5547.14 1326.3L5594.89 1326.3"/>
<path class="l1" d="M5547.14 1087.53L5547.14 1326.3"/>
<path class="l1" d="M5547.14 848.757L5594.89 848.757"/>
<path class="l1" d="M5785.91 1469.56L5785.91 1565.06"/>
<path class="l1" d="M5833.66 1326.3L5833.66 1565.06"/>
<path class="l1" d="M5785.91 1326.3L5833.66 1326.3"/>
<path class="l1" d="M5785.91 1565.06L5833.66 1565.06"/>
<path class="l1" d="M5785.91 848.757L5833.66 848.757"/>
<path class="l1" d="M5785.91 466.726L5785.91 705.495"/>
<path class="l1" d="M5785.91 466.726L5833.66 466.726"/>
<path class="l1" d="M5833.66 466.726L5833.66 848.757"/>
<path class="l1" d="M4783.08 1087.53L4783.08 1183.03"/>
<path class="l1" d="M4783.08 1087.53L5547.14 1087.53"/>
<path class="l1" d="M5547.14 848.757L5547.14 1087.53"/>
<path class="l1" d="M4783.08 848.757L4783.08 944.264"/>
<path class="l1" d="M4783.08 705.495L4830.83 705.495"/>
<path class="l1" d="M4830.83 466.726L5785.91 466.726"/>
<path class="l1" d="M4496.55 705.495L4592.06 705.495"/>
<path class="l1" d="M4114.52 944.264L4496.55 705.495"/>
<path class="l1" d="M3923.51 944.264L4114.52 944.264"/>
<path class="l1" d="M3923.51 848.757L3923.51 944.264"/>
<path class="l1" d="M4114.52 705.495L4210.03 705.495"/>
<path class="l1" d="M4210.03 705.495L4592.06 944.264"/>
<path class="l1" d="M4592.06 944.264L4783.08 944.264"/>
<path class="l1" d="M3923.51 1469.56L3923.51 1565.06"/>
<path class="l1" d="M3875.75 1565.06L3923.51 1565.06"/>
<path class="l1" d="M4783.08 1469.56L4783.08 1565.06"/>
<path class="l1" d="M3923.51 1565.06L4783.08 1565.06"/>
<path class="l1" d="M2538.65 1039.77L4210.03 1039.77"/>
<path class="l1" d="M2538.65 848.757L2538.65 1039.77"/>
<path class="l1" d="M4114.52 1326.3L4210.03 1326.3"/>
<path class="l1" d="M4496.55 1135.28L4496.55 1326.3"/>
<path class="l1" d="M2777.41 1135.28L4496.55 1135.28"/>
<path class="l1" d="M4496.55 1326.3L4592.06 1326.3"/>
<path class="l1" d="M4210.03 1039.77L4210.03 1326.3"/>
<path class="l1" d="M3923.51 944.264L3923.51 1183.03"/>
<path class="l1" d="M4783.08 944.264L4783.08 1087.53"/>
<path class="l1" d="M4783.08 466.726L4783.08 562.234"/>
<path class="l1" d="M3923.51 466.726L4783.08 466.726"/>
<path class="l1" d="M3923.51 466.726L3923.51 562.234"/>
<path class="l1" d="M3875.75 466.726L3923.51 466.726"/>
<path class="l1" d="M4830.83 466.726L4830.83 705.495"/>
<path class="l1" d="M4783.08 466.726L4830.83 466.726"/>
<path class="l1" d="M3875.75 705.495L3923.51 705.495"/>
<path class="l1" d="M3875.75 466.726L3875.75 705.495"/>
<path class="l1" d="M1631.32 848.757L1631.32 1087.53"/>
<path class="l1" d="M3875.75 1326.3L3923.51 1326.3"/>
<path class="l1" d="M3875.75 1326.3L3875.75 1565.06"/>
<path class="l1" d="M2825.17 1565.06L3875.75 1565.06"/>
<path class="l1" d="M4783.08 1326.3L4830.83 1326.3"/>
<path class="l1" d="M4830.83 1326.3L4830.83 1565.06"/>
<path class="l1" d="M4783.08 1565.06L4830.83 1565.06"/>
<path class="l1" d="M1106.03 609.988L1106.03 705.495"/>
<path class="l1" d="M1106.03 609.988L1153.78 609.988"/>
<path class="l1" d="M1153.78 609.988L1153.78 848.757"/>
<path class="l1" d="M1106.03 848.757L1153.78 848.757"/>
<path class="l1" d="M1106.03 1326.3L1153.78 1326.3"/>
<path class="l1" d="M1153.78 1326.3L1153.78 1565.06"/>
<path class="l1" d="M1106.03 1565.06L1153.78 1565.06"/>
<path class="l1" d="M1106.03 1469.56L1106.03 1565.06"/>
<path class="l1" d="M867.261 1326.3L915.015 1326.3"/>
<path class="l1" d="M867.261 1087.53L867.261 1326.3"/>
<path class="l1" d="M867.261 848.757L915.015 848.757"/>
<path class="l1" d="M1106.03 1087.53L1106.03 1183.03"/>
<path class="l1" d="M867.261 848.757L867.261 1087.53"/>
<path class="l1" d="M580.738 1565.06L1106.03 1565.06"/>
<path class="l1" d="M580.738 1087.53L867.261 1087.53"/>
<path class="l1" d="M580.738 609.988L1106.03 609.988"/>
<path class="l1" d="M1153.78 609.988L1870.09 609.988"/>
<path class="l1" d="M580.738 466.726L3875.75 466.726"/>
<path class="l1" d="M1153.78 1565.06L1870.09 1565.06"/>
<path class="l1" d="M1106.03 1087.53L1631.32 1087.53"/>
<path class="l1" d="M1106.03 992.018L1106.03 1087.53"/>
<circle class="l1" cx="1106.03" cy="1087.53" r="17.6689"/>
<circle class="l1" cx="1106.03" cy="1087.53" r="17.6689"/>
<circle class="l1" cx="1631.32" cy="1087.53" r="17.6689"/>
<circle class="l1" cx="1153.78" cy="1565.06" r="17.6689"/>
<circle class="l1" cx="1870.09" cy="1565.06" r="17.6689"/>
<circle class="l1" cx="3875.75" cy="466.726" r="17.6689"/>
<circle class="l1" cx="1153.78" cy="609.988" r="17.6689"/>
<circle class="l1" cx="1870.09" cy="609.988" r="17.6689"/>
<circle class="l1" cx="1106.03" cy="609.988" r="17.6689"/>
<circle class="l1" cx="867.261" cy="1087.53" r="17.6689"/>
<circle class="l1" cx="1106.03" cy="1565.06" r="17.6689"/>
<circle class="l1" cx="867.261" cy="1087.53" r="17.6689"/>
<circle class="l1" cx="1106.03" cy="1087.53" r="17.6689"/>
<circle class="l1" cx="867.261" cy="1087.53" r="17.6689"/>
<circle class="l1" cx="1106.03" cy="1565.06" r="17.6689"/>
<circle class="l1" cx="1106.03" cy="1565.06" r="17.6689"/>
<circle class="l1" cx="1153.78" cy="1565.06" r="17.6689"/>
<circle class="l1" cx="1153.78" cy="1565.06" r="17.6689"/>
<circle class="l1" cx="1153.78" cy="609.988" r="17.6689"/>
<circle class="l1" cx="1106.03" cy="609.988" r="17.6689"/>
<circle class="l1" cx="1153.78" cy="609.988" r="17.6689"/>
<circle class="l1" cx="1106.03" cy="609.988" r="17.6689"/>
<circle class="l1" cx="1631.32" cy="1087.53" r="17.6689"/>
<circle class="l1" cx="1917.85" cy="609.988" r="17.6689"/>
<circle class="l1" cx="2777.41" cy="609.988" r="17.6689"/>
<circle class="l1" cx="1917.85" cy="1565.06" r="17.6689"/>
<circle class="l1" cx="2777.41" cy="1565.06" r="17.6689"/>
<circle class="l1" cx="1870.09" cy="1087.53" r="17.6689"/>
<circle class="l1" cx="1870.09" cy="1087.53" r="17.6689"/>
<circle class="l1" cx="2538.65" cy="1087.53" r="17.6689"/>
<circle class="l1" cx="1631.32" cy="1087.53" r="17.6689"/>
<circle class="l1" cx="1870.09" cy="1565.06" r="17.6689"/>
<circle class="l1" cx="1870.09" cy="1565.06" r="17.6689"/>
<circle class="l1" cx="1917.85" cy="1565.06" r="17.6689"/>
<circle class="l1" cx="1917.85" cy="1565.06" r="17.6689"/>
<circle class="l1" cx="1917.85" cy="609.988" r="17.6689"/>
<circle class="l1" cx="1870.09" cy="609.988" r="17.6689"/>
<circle class="l1" cx="1917.85" cy="609.988" r="17.6689"/>
<circle class="l1" cx="1870.09" cy="609.988" r="17.6689"/>
<circle class="l1" cx="1870.09" cy="1087.53" r="17.6689"/>
<circle class="l1" cx="2825.17" cy="1565.06" r="17.6689"/>
<circle class="l1" cx="3875.75" cy="1565.06" r="17.6689"/>
<circle class="l1" cx="3875.75" cy="1565.06" r="17.6689"/>
<circle class="l1" cx="3875.75" cy="466.726" r="17.6689"/>
<circle class="l1" cx="3875.75" cy="466.726" r="17.6689"/>
<circle class="l1" cx="3923.51" cy="466.726" r="17.6689"/>
<circle class="l1" cx="2777.41" cy="1135.28" r="17.6689"/>
<circle class="l1" cx="2538.65" cy="1039.77" r="17.6689"/>
<circle class="l1" cx="2538.65" cy="1039.77" r="17.6689"/>
<circle class="l1" cx="3875.75" cy="1565.06" r="17.6689"/>
<circle class="l1" cx="3923.51" cy="1565.06" r="17.6689"/>
<circle class="l1" cx="2538.65" cy="1039.77" r="17.6689"/>
<circle class="l1" cx="2538.65" cy="1087.53" r="17.6689"/>
<circle class="l1" cx="2538.65" cy="1087.53" r="17.6689"/>
<circle class="l1" cx="2777.41" cy="1565.06" r="17.6689"/>
<circle class="l1" cx="2777.41" cy="1565.06" r="17.6689"/>
<circle class="l1" cx="2825.17" cy="1565.06" r="17.6689"/>
<circle class="l1" cx="2825.17" cy="1565.06" r="17.6689"/>
<circle class="l1" cx="2777.41" cy="609.988" r="17.6689"/>
<circle class="l1" cx="2777.41" cy="609.988" r="17.6689"/>
<circle class="l1" cx="2777.41" cy="1135.28" r="17.6689"/>
<circle class="l1" cx="2777.41" cy="1135.28" r="17.6689"/>
<circle class="l1" cx="4783.08" cy="1565.06" r="17.6689"/>
<circle class="l1" cx="4830.83" cy="1565.06" r="17.6689"/>
<circle class="l1" cx="4830.83" cy="1565.06" r="17.6689"/>
<circle class="l1" cx="4783.08" cy="466.726" r="17.6689"/>
<circle class="l1" cx="4830.83" cy="466.726" r="17.6689"/>
<circle class="l1" cx="4830.83" cy="466.726" r="17.6689"/>
<circle class="l1" cx="3923.51" cy="466.726" r="17.6689"/>
<circle class="l1" cx="3923.51" cy="466.726" r="17.6689"/>
<circle class="l1" cx="4783.08" cy="466.726" r="17.6689"/>
<circle class="l1" cx="4783.08" cy="466.726" r="17.6689"/>
<circle class="l1" cx="4783.08" cy="944.264" r="17.6689"/>
<circle class="l1" cx="4783.08" cy="1087.53" r="17.6689"/>
<circle class="l1" cx="3923.51" cy="944.264" r="17.6689"/>
<circle class="l1" cx="3923.51" cy="1565.06" r="17.6689"/>
<circle class="l1" cx="4783.08" cy="1565.06" r="17.6689"/>
<circle class="l1" cx="4783.08" cy="1565.06" r="17.6689"/>
<circle class="l1" cx="3923.51" cy="1565.06" r="17.6689"/>
<circle class="l1" cx="4783.08" cy="944.264" r="17.6689"/>
<circle class="l1" cx="3923.51" cy="944.264" r="17.6689"/>
<circle class="l1" cx="3923.51" cy="944.264" r="17.6689"/>
<circle class="l1" cx="4830.83" cy="466.726" r="17.6689"/>
<circle class="l1" cx="5785.91" cy="466.726" r="17.6689"/>
<circle class="l1" cx="4783.08" cy="944.264" r="17.6689"/>
<circle class="l1" cx="5547.14" cy="1087.53" r="17.6689"/>
<circle class="l1" cx="4783.08" cy="1087.53" r="17.6689"/>
<circle class="l1" cx="5547.14" cy="1087.53" r="17.6689"/>
<circle class="l1" cx="4783.08" cy="1087.53" r="17.6689"/>
<circle class="l1" cx="5785.91" cy="466.726" r="17.6689"/>
<circle class="l1" cx="5785.91" cy="466.726" r="17.6689"/>
<circle class="l1" cx="5785.91" cy="1565.06" r="17.6689"/>
<circle class="l1" cx="5785.91" cy="1565.06" r="17.6689"/>
<circle class="l1" cx="5547.14" cy="1087.53" r="17.6689"/>
<circle class="l1" cx="5785.91" cy="1087.53" r="17.6689"/>
<circle class="l1" cx="5785.91" cy="1087.53" r="17.6689"/>
<circle class="l1" cx="5785.91" cy="1087.53" r="17.6689"/>
<circle class="l1" cx="4830.83" cy="1565.06" r="17.6689"/>
<circle class="l1" cx="5785.91" cy="1565.06" r="17.6689"/>
</svg>
